<svg width="20" height="20" viewBox="0 0 20 20" fill="none" xmlns="http://www.w3.org/2000/svg">
<circle cx="10" cy="10" r="10" fill="#FFB63F"/>
<path d="M5.625 8.6123V12.1873C5.625 12.5188 5.7567 12.8368 5.99112 13.0712C6.22554 13.3056 6.54348 13.4373 6.875 13.4373H13.125C13.4565 13.4373 13.7745 13.3056 14.0089 13.0712C14.2433 12.8368 14.375 12.5188 14.375 12.1873V8.6123L10.655 10.9011C10.458 11.0222 10.2313 11.0864 10 11.0864C9.76872 11.0864 9.54198 11.0222 9.345 10.9011L5.625 8.6123Z" fill="#0C121D"/>
<path d="M14.375 7.87833V7.8125C14.375 7.48098 14.2433 7.16304 14.0089 6.92862C13.7745 6.6942 13.4565 6.5625 13.125 6.5625H6.875C6.54348 6.5625 6.22554 6.6942 5.99112 6.92862C5.7567 7.16304 5.625 7.48098 5.625 7.8125V7.87833L9.6725 10.3692C9.77099 10.4298 9.88436 10.4618 10 10.4618C10.1156 10.4618 10.229 10.4298 10.3275 10.3692L14.375 7.87833Z" fill="#0C121D"/>
</svg>
