<svg width="20" height="20" viewBox="0 0 20 20" fill="none" xmlns="http://www.w3.org/2000/svg">
<circle cx="10" cy="10" r="10" fill="#FFB63F"/>
<g clip-path="url(#clip0_860_1715)">
<path fill-rule="evenodd" clip-rule="evenodd" d="M5.625 6.875C5.625 6.54348 5.7567 6.22554 5.99112 5.99112C6.22554 5.7567 6.54348 5.625 6.875 5.625H7.44667C7.805 5.625 8.1175 5.86917 8.20458 6.21667L8.665 8.05958C8.70231 8.20875 8.69477 8.36561 8.64334 8.51051C8.5919 8.65541 8.49884 8.78191 8.37583 8.87417L7.83708 9.27833C7.78083 9.32042 7.76875 9.38208 7.78458 9.425C8.01974 10.0645 8.39108 10.6453 8.87289 11.1271C9.35471 11.6089 9.93548 11.9803 10.575 12.2154C10.6179 12.2312 10.6792 12.2192 10.7217 12.1629L11.1258 11.6242C11.2181 11.5012 11.3446 11.4081 11.4895 11.3567C11.6344 11.3052 11.7913 11.2977 11.9404 11.335L13.7833 11.7954C14.1308 11.8825 14.375 12.195 14.375 12.5537V13.125C14.375 13.4565 14.2433 13.7745 14.0089 14.0089C13.7745 14.2433 13.4565 14.375 13.125 14.375H12.1875C8.56333 14.375 5.625 11.4367 5.625 7.8125V6.875Z" fill="#0C121D"/>
</g>
<defs>
<clipPath id="clip0_860_1715">
<rect width="10" height="10" fill="white" transform="translate(5 5)"/>
</clipPath>
</defs>
</svg>
