<svg width="137" height="34" viewBox="0 0 137 34" fill="none" xmlns="http://www.w3.org/2000/svg">
<path d="M38.3926 24.9722V8.59555L42.2428 6.38232V24.9722H38.3926Z" fill="white"/>
<path d="M44.582 24.971V11.1358H48.221V12.2763C49.2836 11.3389 50.5841 10.8691 52.1246 10.8691C53.1872 10.8691 54.1287 11.103 54.9533 11.5706C55.7759 12.0424 56.4179 12.6885 56.8795 13.509C57.3389 14.3315 57.5707 15.2853 57.5707 16.3643V24.969H53.9584V16.9201C53.9584 16.0197 53.6979 15.3058 53.1748 14.7828C52.6538 14.2618 51.9502 14.0013 51.0641 14.0013C50.4446 14.0013 49.8948 14.1203 49.4169 14.3603C48.9389 14.5982 48.541 14.9387 48.221 15.3817V24.969H44.582V24.971Z" fill="white"/>
<path d="M65.6678 25.183C64.1458 25.183 62.9889 24.8322 62.2032 24.1348C61.4135 23.4354 61.0217 22.4221 61.0217 21.095V14.164H58.1807V11.1365H61.0217V7.60231L64.634 6.77979V11.1365H68.6176V14.164H64.634V20.3237C64.634 20.9617 64.7817 21.417 65.073 21.6919C65.3642 21.9667 65.8565 22.1042 66.5478 22.1042C66.9191 22.1042 67.2514 22.0795 67.5427 22.0365C67.836 21.9934 68.1581 21.9175 68.513 21.8088V24.7851C68.1417 24.9081 67.6801 25.0045 67.1324 25.0763C66.5827 25.1481 66.0965 25.183 65.6719 25.183H65.6678Z" fill="white"/>
<path d="M76.21 25.2379C74.8295 25.2379 73.5762 24.9138 72.4521 24.2677C71.328 23.6215 70.4397 22.7641 69.7833 21.6914C69.1269 20.6206 68.8008 19.4146 68.8008 18.0669C68.8008 16.7193 69.1146 15.5296 69.7444 14.4425C70.3721 13.3533 71.2274 12.4898 72.3064 11.8518C73.3854 11.216 74.5813 10.896 75.892 10.896C77.2028 10.896 78.4028 11.2201 79.4367 11.8662C80.4726 12.5123 81.2869 13.3923 81.8797 14.5061C82.4726 15.6219 82.77 16.8957 82.77 18.3315V19.2874H72.5198C72.6777 19.8371 72.9444 20.3335 73.3156 20.7745C73.6869 21.2175 74.1382 21.558 74.6715 21.796C75.2028 22.036 75.7772 22.1549 76.3967 22.1549C77.0162 22.1549 77.5638 22.0626 78.0972 21.876C78.6285 21.6893 79.0797 21.4206 79.451 21.0658L81.8408 23.2441C80.9915 23.9354 80.1177 24.4399 79.2254 24.7579C78.331 25.0779 77.3259 25.2379 76.2121 25.2379H76.21ZM72.4644 16.6865H79.209C79.0674 16.1368 78.8336 15.6547 78.5054 15.2383C78.1772 14.824 77.7833 14.4999 77.3238 14.2702C76.8644 14.0384 76.3679 13.9235 75.8367 13.9235C75.2685 13.9235 74.7556 14.0343 74.2962 14.2558C73.8346 14.4753 73.451 14.7953 73.1392 15.2117C72.8295 15.626 72.6038 16.1204 72.4623 16.6865H72.4644Z" fill="white"/>
<path d="M84.1778 24.975V11.1398H87.8414V12.6782C88.266 12.0772 88.7932 11.6177 89.4209 11.2977C90.0506 10.9798 90.7542 10.8198 91.5317 10.8198C92.223 10.8383 92.7276 10.9367 93.0455 11.1111V14.3253C92.7624 14.2022 92.465 14.1058 92.1553 14.034C91.8455 13.9622 91.5214 13.9274 91.185 13.9274C90.4753 13.9274 89.8291 14.1099 89.2465 14.473C88.6619 14.836 88.1922 15.3447 87.8394 15.9991V24.9771H84.1758L84.1778 24.975Z" fill="white"/>
<path d="M94.2403 30.3909V11.1365H97.826V12.277C98.9419 11.3929 100.251 10.9498 101.756 10.9498C103.065 10.9334 104.253 11.2411 105.315 11.879C106.378 12.5169 107.223 13.3702 107.851 14.443C108.48 15.5137 108.794 16.7198 108.794 18.0674C108.794 19.4151 108.476 20.5945 107.838 21.6652C107.2 22.738 106.341 23.5872 105.262 24.2148C104.183 24.8425 102.979 25.1563 101.65 25.1563C100.94 25.1563 100.273 25.0599 99.6434 24.8651C99.0157 24.6702 98.427 24.3953 97.8773 24.0425V30.3889H94.2383L94.2403 30.3909ZM101.172 22.0755C101.933 22.0755 102.62 21.9032 103.231 21.5586C103.842 21.2119 104.324 20.7299 104.677 20.1104C105.032 19.491 105.209 18.81 105.209 18.0654C105.209 17.3208 105.032 16.6214 104.677 16.0204C104.324 15.4173 103.84 14.9394 103.231 14.5845C102.622 14.2297 101.935 14.0533 101.172 14.0533C100.499 14.0533 99.8793 14.1661 99.3132 14.3856C98.747 14.6091 98.269 14.9394 97.8793 15.3824V20.773C98.269 21.1811 98.7511 21.4991 99.3255 21.7309C99.9019 21.9606 100.517 22.0755 101.172 22.0755Z" fill="white"/>
<path d="M110.178 24.975V11.1398H113.841V12.6782C114.266 12.0772 114.793 11.6177 115.421 11.2977C116.051 10.9798 116.754 10.8198 117.532 10.8198C118.223 10.8383 118.728 10.9367 119.046 11.1111V14.3253C118.762 14.2022 118.465 14.1058 118.155 14.034C117.846 13.9622 117.521 13.9274 117.185 13.9274C116.475 13.9274 115.829 14.1099 115.247 14.473C114.662 14.836 114.192 15.3447 113.839 15.9991V24.9771H110.176L110.178 24.975Z" fill="white"/>
<path d="M122.046 9.49007C121.48 9.49007 120.992 9.287 120.586 8.87881C120.178 8.47268 119.975 7.97629 119.975 7.39171C119.975 6.80712 120.18 6.34355 120.586 5.94357C120.992 5.54564 121.48 5.34668 122.046 5.34668C122.613 5.34668 123.123 5.54564 123.521 5.94357C123.919 6.34355 124.118 6.82558 124.118 7.39171C124.118 7.95783 123.919 8.47268 123.521 8.87881C123.123 9.287 122.631 9.49007 122.046 9.49007ZM120.241 24.9724V11.1372H123.88V24.9724H120.241Z" fill="white"/>
<path d="M125.207 24.9719V22.3957L132.165 14.1909H125.26V11.1367H136.84V13.713L129.855 21.8911H137V24.9719H125.209H125.207Z" fill="white"/>
<path d="M32.6511 20.136C32.6511 13.0314 26.8914 7.27197 19.7865 7.27197C12.6816 7.27197 6.92188 13.0314 6.92188 20.136C6.92188 27.2405 12.6816 32.9999 19.7865 32.9999C26.8914 32.9999 32.6511 27.2405 32.6511 20.136Z" fill="#FFB63F" stroke="#231F20" stroke-width="1.24305" stroke-miterlimit="10"/>
<path d="M20.0452 1H6.98474C3.48638 1 0.650391 3.83585 0.650391 7.33405V20.3939C0.650391 23.8921 3.48638 26.728 6.98474 26.728H20.0452C23.5436 26.728 26.3796 23.8921 26.3796 20.3939V7.33405C26.3796 3.83585 23.5436 1 20.0452 1Z" fill="#645DD7" stroke="#231F20" stroke-width="1.24305" stroke-miterlimit="10"/>
<path d="M12.0344 21.7621L13.2631 15.2229H9.78418L14.9965 5.96387L13.7657 12.503H17.2467L12.0344 21.7621Z" fill="white"/>
</svg>
