<svg width="1408" height="503" viewBox="0 0 1408 503" fill="none" xmlns="http://www.w3.org/2000/svg">
<mask id="path-1-outside-1_979_27" maskUnits="userSpaceOnUse" x="0.777344" y="0.960083" width="1407" height="502" fill="black">
<rect fill="white" x="0.777344" y="0.960083" width="1407" height="502"/>
<path d="M15.8225 243.068V6.17711H95.3709C109.604 6.17711 121.302 8.90671 130.466 14.3659C139.629 19.6301 146.454 27.429 150.938 37.7625C155.422 47.901 157.664 60.2817 157.664 74.9046C157.664 93.2319 154.642 107.27 148.598 117.018C142.554 126.572 134.365 133.201 124.032 136.906C113.698 140.61 102.097 142.462 89.2293 142.462H68.1724V243.068H15.8225ZM68.1724 105.905H85.7199C92.1539 105.905 97.0282 104.735 100.343 102.396C103.657 100.056 105.802 96.5464 106.777 91.8671C107.947 87.1878 108.532 81.2412 108.532 74.0272C108.532 67.9831 108.044 62.7189 107.069 58.2345C106.289 53.5552 104.242 49.8508 100.928 47.1212C97.6131 44.3915 92.4464 43.0267 85.4274 43.0267H68.1724V105.905ZM175.589 243.068V6.17711H227.939V207.68H282.336V243.068H175.589ZM286.535 243.068L331.281 6.17711H390.943L435.104 243.068H386.848L378.952 193.057H344.149L335.961 243.068H286.535ZM348.829 161.764H373.98L361.404 69.3479L348.829 161.764ZM515.847 246.577C497.91 246.577 483.677 243.36 473.148 236.926C462.815 230.297 455.503 221.133 451.214 209.435C446.925 197.542 444.78 183.601 444.78 167.614V82.216C444.78 65.8384 446.925 51.8005 451.214 40.1022C455.503 28.2089 462.815 19.0452 473.148 12.6112C483.677 6.17711 497.91 2.96008 515.847 2.96008C533.394 2.96008 547.042 5.88466 556.791 11.7338C566.735 17.388 573.753 25.3818 577.848 35.7153C581.942 46.0488 583.99 57.9421 583.99 71.3951V91.8671H532.81V68.1781C532.81 63.4988 532.517 59.0144 531.932 54.725C531.542 50.4357 530.177 46.9262 527.838 44.1966C525.498 41.272 521.501 39.8097 515.847 39.8097C510.388 39.8097 506.293 41.272 503.564 44.1966C501.029 47.1212 499.372 50.8256 498.592 55.31C498.007 59.5993 497.715 64.1812 497.715 69.0555V180.482C497.715 185.746 498.105 190.62 498.884 195.105C499.859 199.394 501.614 202.903 504.149 205.633C506.878 208.168 510.778 209.435 515.847 209.435C521.306 209.435 525.206 208.07 527.545 205.341C529.885 202.416 531.347 198.712 531.932 194.227C532.517 189.743 532.81 185.161 532.81 180.482V155.623H583.99V176.095C583.99 189.548 581.942 201.636 577.848 212.36C573.948 222.888 567.027 231.272 557.083 237.511C547.335 243.555 533.589 246.577 515.847 246.577ZM605.478 243.068V6.17711H711.933V41.8569H657.828V100.641H699.065V136.906H657.828V207.68H712.518V243.068H605.478ZM826.32 243.068V146.264L781.282 6.17711H830.707L853.226 81.0462L873.406 6.17711H920.784L876.623 146.264V243.068H826.32ZM996.402 246.577C978.66 246.577 964.622 243.458 954.289 237.218C943.955 230.979 936.546 222.011 932.062 210.312C927.577 198.614 925.335 184.674 925.335 168.491V80.4613C925.335 64.0837 927.577 50.1432 932.062 38.6399C936.546 27.1366 943.955 18.3628 954.289 12.3187C964.622 6.07963 978.66 2.96008 996.402 2.96008C1014.34 2.96008 1028.48 6.07963 1038.81 12.3187C1049.34 18.3628 1056.84 27.1366 1061.33 38.6399C1065.81 50.1432 1068.05 64.0837 1068.05 80.4613V168.491C1068.05 184.674 1065.81 198.614 1061.33 210.312C1056.84 222.011 1049.34 230.979 1038.81 237.218C1028.48 243.458 1014.34 246.577 996.402 246.577ZM996.402 209.435C1001.86 209.435 1005.86 208.07 1008.39 205.341C1010.93 202.611 1012.59 199.101 1013.36 194.812C1014.14 190.523 1014.53 186.136 1014.53 181.652V67.5932C1014.53 62.9138 1014.14 58.527 1013.36 54.4326C1012.59 50.1432 1010.93 46.6337 1008.39 43.9041C1005.86 41.1745 1001.86 39.8097 996.402 39.8097C991.333 39.8097 987.531 41.1745 984.997 43.9041C982.462 46.6337 980.805 50.1432 980.025 54.4326C979.245 58.527 978.855 62.9138 978.855 67.5932V181.652C978.855 186.136 979.147 190.523 979.732 194.812C980.512 199.101 982.072 202.611 984.412 205.341C986.946 208.07 990.943 209.435 996.402 209.435ZM1161.04 246.577C1142.91 246.577 1128.67 243.653 1118.34 237.803C1108.2 231.759 1101.08 223.083 1096.99 211.775C1092.9 200.271 1090.85 186.233 1090.85 169.661V6.17711H1142.61V177.557C1142.61 182.431 1143 187.306 1143.78 192.18C1144.56 197.054 1146.22 201.051 1148.75 204.171C1151.48 207.29 1155.58 208.85 1161.04 208.85C1166.69 208.85 1170.79 207.29 1173.32 204.171C1175.86 201.051 1177.42 197.054 1178 192.18C1178.78 187.306 1179.17 182.431 1179.17 177.557V6.17711H1231.23V169.661C1231.23 186.233 1229.08 200.271 1224.79 211.775C1220.7 223.083 1213.58 231.759 1203.44 237.803C1193.31 243.653 1179.17 246.577 1161.04 246.577ZM1257.22 243.068V6.17711H1322.44C1338.43 6.17711 1352.27 7.93185 1363.97 11.4413C1375.67 14.9508 1384.74 21.2874 1391.17 30.4511C1397.8 39.4198 1401.11 52.1904 1401.11 68.763C1401.11 78.5116 1400.33 87.1878 1398.77 94.7917C1397.21 102.396 1394.29 109.025 1390 114.679C1385.91 120.138 1379.96 124.72 1372.16 128.424L1404.62 243.068H1350.52L1324.49 136.906H1309.57V243.068H1257.22ZM1309.57 106.782H1324.2C1331.61 106.782 1337.36 105.515 1341.45 102.981C1345.55 100.251 1348.37 96.449 1349.93 91.5747C1351.69 86.5054 1352.57 80.4613 1352.57 73.4423C1352.57 63.3038 1350.71 55.4074 1347.01 49.7533C1343.3 44.0991 1336.48 41.272 1326.54 41.272H1309.57V106.782ZM38.4571 497.068V299.074H2.77734V260.177H126.487V299.074H91.0995V497.068H38.4571ZM140.031 497.068V260.177H205.249C221.237 260.177 235.08 261.932 246.778 265.441C258.476 268.951 267.543 275.287 273.977 284.451C280.606 293.42 283.92 306.19 283.92 322.763C283.92 332.512 283.14 341.188 281.581 348.792C280.021 356.396 277.096 363.025 272.807 368.679C268.712 374.138 262.766 378.72 254.967 382.424L287.43 497.068H233.325L207.296 390.906H192.381V497.068H140.031ZM192.381 360.782H207.004C214.413 360.782 220.165 359.515 224.259 356.98C228.353 354.251 231.18 350.449 232.74 345.575C234.495 340.505 235.372 334.461 235.372 327.442C235.372 317.304 233.52 309.407 229.816 303.753C226.111 298.099 219.287 295.272 209.344 295.272H192.381V360.782ZM374.801 500.577C356.669 500.577 342.436 497.652 332.103 491.803C321.964 485.759 314.848 477.083 310.753 465.775C306.659 454.271 304.612 440.233 304.612 423.661V260.177H356.377V431.557C356.377 436.431 356.767 441.306 357.546 446.18C358.326 451.054 359.984 455.051 362.518 458.171C365.248 461.29 369.342 462.85 374.801 462.85C380.456 462.85 384.55 461.29 387.085 458.171C389.619 455.051 391.179 451.054 391.764 446.18C392.544 441.306 392.934 436.431 392.934 431.557V260.177H444.991V423.661C444.991 440.233 442.846 454.271 438.557 465.775C434.463 477.083 427.346 485.759 417.208 491.803C407.069 497.652 392.934 500.577 374.801 500.577ZM533.866 500.577C519.048 500.577 506.668 497.945 496.724 492.681C486.781 487.416 479.274 479.325 474.205 468.407C469.136 457.293 466.309 442.963 465.724 425.416L510.47 418.689C510.665 428.828 511.542 437.016 513.102 443.255C514.856 449.495 517.196 453.979 520.121 456.708C523.24 459.438 526.945 460.803 531.234 460.803C536.693 460.803 540.203 458.951 541.763 455.246C543.517 451.542 544.395 447.642 544.395 443.548C544.395 433.799 542.055 425.611 537.376 418.981C532.696 412.157 526.36 405.333 518.366 398.509L497.894 380.67C488.925 373.066 481.321 364.487 475.082 354.933C469.038 345.185 466.016 333.194 466.016 318.961C466.016 298.879 471.963 283.574 483.856 273.045C495.749 262.322 511.932 256.96 532.404 256.96C545.077 256.96 555.216 259.105 562.82 263.394C570.618 267.684 576.468 273.338 580.367 280.357C584.461 287.181 587.191 294.492 588.556 302.291C590.116 309.895 590.993 317.206 591.188 324.225L546.149 329.782C545.954 322.763 545.467 316.719 544.687 311.65C544.102 306.385 542.737 302.388 540.593 299.659C538.448 296.734 535.134 295.272 530.649 295.272C525.775 295.272 522.168 297.319 519.828 301.414C517.684 305.508 516.611 309.602 516.611 313.697C516.611 322.471 518.658 329.684 522.753 335.339C527.042 340.798 532.599 346.55 539.423 352.594L559.018 369.849C569.351 378.622 578.027 388.566 585.046 399.679C592.26 410.793 595.867 424.538 595.867 440.916C595.867 452.029 593.333 462.168 588.263 471.331C583.194 480.3 575.98 487.416 566.621 492.681C557.458 497.945 546.539 500.577 533.866 500.577ZM635.253 497.068V299.074H599.573V260.177H723.283V299.074H687.895V497.068H635.253ZM804.636 497.068V260.177H856.986V497.068H804.636ZM884.998 497.068V260.177H921.848L970.395 374.236V260.177H1013.68V497.068H978.292L929.744 374.236V497.068H884.998ZM1177.57 500.577C1159.44 500.577 1145.21 497.652 1134.88 491.803C1124.74 485.759 1117.62 477.083 1113.53 465.775C1109.43 454.271 1107.38 440.233 1107.38 423.661V260.177H1159.15V431.557C1159.15 436.431 1159.54 441.306 1160.32 446.18C1161.1 451.054 1162.76 455.051 1165.29 458.171C1168.02 461.29 1172.11 462.85 1177.57 462.85C1183.23 462.85 1187.32 461.29 1189.86 458.171C1192.39 455.051 1193.95 451.054 1194.54 446.18C1195.32 441.306 1195.71 436.431 1195.71 431.557V260.177H1247.76V423.661C1247.76 440.233 1245.62 454.271 1241.33 465.775C1237.24 477.083 1230.12 485.759 1219.98 491.803C1209.84 497.652 1195.71 500.577 1177.57 500.577ZM1336.64 500.577C1321.82 500.577 1309.44 497.945 1299.5 492.681C1289.55 487.416 1282.05 479.325 1276.98 468.407C1271.91 457.293 1269.08 442.963 1268.5 425.416L1313.24 418.689C1313.44 428.828 1314.31 437.016 1315.87 443.255C1317.63 449.495 1319.97 453.979 1322.89 456.708C1326.01 459.438 1329.72 460.803 1334.01 460.803C1339.47 460.803 1342.98 458.951 1344.54 455.246C1346.29 451.542 1347.17 447.642 1347.17 443.548C1347.17 433.799 1344.83 425.611 1340.15 418.981C1335.47 412.157 1329.13 405.333 1321.14 398.509L1300.67 380.67C1291.7 373.066 1284.09 364.487 1277.85 354.933C1271.81 345.185 1268.79 333.194 1268.79 318.961C1268.79 298.879 1274.74 283.574 1286.63 273.045C1298.52 262.322 1314.7 256.96 1335.18 256.96C1347.85 256.96 1357.99 259.105 1365.59 263.394C1373.39 267.684 1379.24 273.338 1383.14 280.357C1387.23 287.181 1389.96 294.492 1391.33 302.291C1392.89 309.895 1393.77 317.206 1393.96 324.225L1348.92 329.782C1348.73 322.763 1348.24 316.719 1347.46 311.65C1346.87 306.385 1345.51 302.388 1343.37 299.659C1341.22 296.734 1337.91 295.272 1333.42 295.272C1328.55 295.272 1324.94 297.319 1322.6 301.414C1320.46 305.508 1319.38 309.602 1319.38 313.697C1319.38 322.471 1321.43 329.684 1325.53 335.339C1329.81 340.798 1335.37 346.55 1342.2 352.594L1361.79 369.849C1372.12 378.622 1380.8 388.566 1387.82 399.679C1395.03 410.793 1398.64 424.538 1398.64 440.916C1398.64 452.029 1396.11 462.168 1391.04 471.331C1385.97 480.3 1378.75 487.416 1369.39 492.681C1360.23 497.945 1349.31 500.577 1336.64 500.577Z"/>
</mask>
<path d="M15.8225 243.068V6.17711H95.3709C109.604 6.17711 121.302 8.90671 130.466 14.3659C139.629 19.6301 146.454 27.429 150.938 37.7625C155.422 47.901 157.664 60.2817 157.664 74.9046C157.664 93.2319 154.642 107.27 148.598 117.018C142.554 126.572 134.365 133.201 124.032 136.906C113.698 140.61 102.097 142.462 89.2293 142.462H68.1724V243.068H15.8225ZM68.1724 105.905H85.7199C92.1539 105.905 97.0282 104.735 100.343 102.396C103.657 100.056 105.802 96.5464 106.777 91.8671C107.947 87.1878 108.532 81.2412 108.532 74.0272C108.532 67.9831 108.044 62.7189 107.069 58.2345C106.289 53.5552 104.242 49.8508 100.928 47.1212C97.6131 44.3915 92.4464 43.0267 85.4274 43.0267H68.1724V105.905ZM175.589 243.068V6.17711H227.939V207.68H282.336V243.068H175.589ZM286.535 243.068L331.281 6.17711H390.943L435.104 243.068H386.848L378.952 193.057H344.149L335.961 243.068H286.535ZM348.829 161.764H373.98L361.404 69.3479L348.829 161.764ZM515.847 246.577C497.91 246.577 483.677 243.36 473.148 236.926C462.815 230.297 455.503 221.133 451.214 209.435C446.925 197.542 444.78 183.601 444.78 167.614V82.216C444.78 65.8384 446.925 51.8005 451.214 40.1022C455.503 28.2089 462.815 19.0452 473.148 12.6112C483.677 6.17711 497.91 2.96008 515.847 2.96008C533.394 2.96008 547.042 5.88466 556.791 11.7338C566.735 17.388 573.753 25.3818 577.848 35.7153C581.942 46.0488 583.99 57.9421 583.99 71.3951V91.8671H532.81V68.1781C532.81 63.4988 532.517 59.0144 531.932 54.725C531.542 50.4357 530.177 46.9262 527.838 44.1966C525.498 41.272 521.501 39.8097 515.847 39.8097C510.388 39.8097 506.293 41.272 503.564 44.1966C501.029 47.1212 499.372 50.8256 498.592 55.31C498.007 59.5993 497.715 64.1812 497.715 69.0555V180.482C497.715 185.746 498.105 190.62 498.884 195.105C499.859 199.394 501.614 202.903 504.149 205.633C506.878 208.168 510.778 209.435 515.847 209.435C521.306 209.435 525.206 208.07 527.545 205.341C529.885 202.416 531.347 198.712 531.932 194.227C532.517 189.743 532.81 185.161 532.81 180.482V155.623H583.99V176.095C583.99 189.548 581.942 201.636 577.848 212.36C573.948 222.888 567.027 231.272 557.083 237.511C547.335 243.555 533.589 246.577 515.847 246.577ZM605.478 243.068V6.17711H711.933V41.8569H657.828V100.641H699.065V136.906H657.828V207.68H712.518V243.068H605.478ZM826.32 243.068V146.264L781.282 6.17711H830.707L853.226 81.0462L873.406 6.17711H920.784L876.623 146.264V243.068H826.32ZM996.402 246.577C978.66 246.577 964.622 243.458 954.289 237.218C943.955 230.979 936.546 222.011 932.062 210.312C927.577 198.614 925.335 184.674 925.335 168.491V80.4613C925.335 64.0837 927.577 50.1432 932.062 38.6399C936.546 27.1366 943.955 18.3628 954.289 12.3187C964.622 6.07963 978.66 2.96008 996.402 2.96008C1014.34 2.96008 1028.48 6.07963 1038.81 12.3187C1049.34 18.3628 1056.84 27.1366 1061.33 38.6399C1065.81 50.1432 1068.05 64.0837 1068.05 80.4613V168.491C1068.05 184.674 1065.81 198.614 1061.33 210.312C1056.84 222.011 1049.34 230.979 1038.81 237.218C1028.48 243.458 1014.34 246.577 996.402 246.577ZM996.402 209.435C1001.86 209.435 1005.86 208.07 1008.39 205.341C1010.93 202.611 1012.59 199.101 1013.36 194.812C1014.14 190.523 1014.53 186.136 1014.53 181.652V67.5932C1014.53 62.9138 1014.14 58.527 1013.36 54.4326C1012.59 50.1432 1010.93 46.6337 1008.39 43.9041C1005.86 41.1745 1001.86 39.8097 996.402 39.8097C991.333 39.8097 987.531 41.1745 984.997 43.9041C982.462 46.6337 980.805 50.1432 980.025 54.4326C979.245 58.527 978.855 62.9138 978.855 67.5932V181.652C978.855 186.136 979.147 190.523 979.732 194.812C980.512 199.101 982.072 202.611 984.412 205.341C986.946 208.07 990.943 209.435 996.402 209.435ZM1161.04 246.577C1142.91 246.577 1128.67 243.653 1118.34 237.803C1108.2 231.759 1101.08 223.083 1096.99 211.775C1092.9 200.271 1090.85 186.233 1090.85 169.661V6.17711H1142.61V177.557C1142.61 182.431 1143 187.306 1143.78 192.18C1144.56 197.054 1146.22 201.051 1148.75 204.171C1151.48 207.29 1155.58 208.85 1161.04 208.85C1166.69 208.85 1170.79 207.29 1173.32 204.171C1175.86 201.051 1177.42 197.054 1178 192.18C1178.78 187.306 1179.17 182.431 1179.17 177.557V6.17711H1231.23V169.661C1231.23 186.233 1229.08 200.271 1224.79 211.775C1220.7 223.083 1213.58 231.759 1203.44 237.803C1193.31 243.653 1179.17 246.577 1161.04 246.577ZM1257.22 243.068V6.17711H1322.44C1338.43 6.17711 1352.27 7.93185 1363.97 11.4413C1375.67 14.9508 1384.74 21.2874 1391.17 30.4511C1397.8 39.4198 1401.11 52.1904 1401.11 68.763C1401.11 78.5116 1400.33 87.1878 1398.77 94.7917C1397.21 102.396 1394.29 109.025 1390 114.679C1385.91 120.138 1379.96 124.72 1372.16 128.424L1404.62 243.068H1350.52L1324.49 136.906H1309.57V243.068H1257.22ZM1309.57 106.782H1324.2C1331.61 106.782 1337.36 105.515 1341.45 102.981C1345.55 100.251 1348.37 96.449 1349.93 91.5747C1351.69 86.5054 1352.57 80.4613 1352.57 73.4423C1352.57 63.3038 1350.71 55.4074 1347.01 49.7533C1343.3 44.0991 1336.48 41.272 1326.54 41.272H1309.57V106.782ZM38.4571 497.068V299.074H2.77734V260.177H126.487V299.074H91.0995V497.068H38.4571ZM140.031 497.068V260.177H205.249C221.237 260.177 235.08 261.932 246.778 265.441C258.476 268.951 267.543 275.287 273.977 284.451C280.606 293.42 283.92 306.19 283.92 322.763C283.92 332.512 283.14 341.188 281.581 348.792C280.021 356.396 277.096 363.025 272.807 368.679C268.712 374.138 262.766 378.72 254.967 382.424L287.43 497.068H233.325L207.296 390.906H192.381V497.068H140.031ZM192.381 360.782H207.004C214.413 360.782 220.165 359.515 224.259 356.98C228.353 354.251 231.18 350.449 232.74 345.575C234.495 340.505 235.372 334.461 235.372 327.442C235.372 317.304 233.52 309.407 229.816 303.753C226.111 298.099 219.287 295.272 209.344 295.272H192.381V360.782ZM374.801 500.577C356.669 500.577 342.436 497.652 332.103 491.803C321.964 485.759 314.848 477.083 310.753 465.775C306.659 454.271 304.612 440.233 304.612 423.661V260.177H356.377V431.557C356.377 436.431 356.767 441.306 357.546 446.18C358.326 451.054 359.984 455.051 362.518 458.171C365.248 461.29 369.342 462.85 374.801 462.85C380.456 462.85 384.55 461.29 387.085 458.171C389.619 455.051 391.179 451.054 391.764 446.18C392.544 441.306 392.934 436.431 392.934 431.557V260.177H444.991V423.661C444.991 440.233 442.846 454.271 438.557 465.775C434.463 477.083 427.346 485.759 417.208 491.803C407.069 497.652 392.934 500.577 374.801 500.577ZM533.866 500.577C519.048 500.577 506.668 497.945 496.724 492.681C486.781 487.416 479.274 479.325 474.205 468.407C469.136 457.293 466.309 442.963 465.724 425.416L510.47 418.689C510.665 428.828 511.542 437.016 513.102 443.255C514.856 449.495 517.196 453.979 520.121 456.708C523.24 459.438 526.945 460.803 531.234 460.803C536.693 460.803 540.203 458.951 541.763 455.246C543.517 451.542 544.395 447.642 544.395 443.548C544.395 433.799 542.055 425.611 537.376 418.981C532.696 412.157 526.36 405.333 518.366 398.509L497.894 380.67C488.925 373.066 481.321 364.487 475.082 354.933C469.038 345.185 466.016 333.194 466.016 318.961C466.016 298.879 471.963 283.574 483.856 273.045C495.749 262.322 511.932 256.96 532.404 256.96C545.077 256.96 555.216 259.105 562.82 263.394C570.618 267.684 576.468 273.338 580.367 280.357C584.461 287.181 587.191 294.492 588.556 302.291C590.116 309.895 590.993 317.206 591.188 324.225L546.149 329.782C545.954 322.763 545.467 316.719 544.687 311.65C544.102 306.385 542.737 302.388 540.593 299.659C538.448 296.734 535.134 295.272 530.649 295.272C525.775 295.272 522.168 297.319 519.828 301.414C517.684 305.508 516.611 309.602 516.611 313.697C516.611 322.471 518.658 329.684 522.753 335.339C527.042 340.798 532.599 346.55 539.423 352.594L559.018 369.849C569.351 378.622 578.027 388.566 585.046 399.679C592.26 410.793 595.867 424.538 595.867 440.916C595.867 452.029 593.333 462.168 588.263 471.331C583.194 480.3 575.98 487.416 566.621 492.681C557.458 497.945 546.539 500.577 533.866 500.577ZM635.253 497.068V299.074H599.573V260.177H723.283V299.074H687.895V497.068H635.253ZM804.636 497.068V260.177H856.986V497.068H804.636ZM884.998 497.068V260.177H921.848L970.395 374.236V260.177H1013.68V497.068H978.292L929.744 374.236V497.068H884.998ZM1177.57 500.577C1159.44 500.577 1145.21 497.652 1134.88 491.803C1124.74 485.759 1117.62 477.083 1113.53 465.775C1109.43 454.271 1107.38 440.233 1107.38 423.661V260.177H1159.15V431.557C1159.15 436.431 1159.54 441.306 1160.32 446.18C1161.1 451.054 1162.76 455.051 1165.29 458.171C1168.02 461.29 1172.11 462.85 1177.57 462.85C1183.23 462.85 1187.32 461.29 1189.86 458.171C1192.39 455.051 1193.95 451.054 1194.54 446.18C1195.32 441.306 1195.71 436.431 1195.71 431.557V260.177H1247.76V423.661C1247.76 440.233 1245.62 454.271 1241.33 465.775C1237.24 477.083 1230.12 485.759 1219.98 491.803C1209.84 497.652 1195.71 500.577 1177.57 500.577ZM1336.64 500.577C1321.82 500.577 1309.44 497.945 1299.5 492.681C1289.55 487.416 1282.05 479.325 1276.98 468.407C1271.91 457.293 1269.08 442.963 1268.5 425.416L1313.24 418.689C1313.44 428.828 1314.31 437.016 1315.87 443.255C1317.63 449.495 1319.97 453.979 1322.89 456.708C1326.01 459.438 1329.72 460.803 1334.01 460.803C1339.47 460.803 1342.98 458.951 1344.54 455.246C1346.29 451.542 1347.17 447.642 1347.17 443.548C1347.17 433.799 1344.83 425.611 1340.15 418.981C1335.47 412.157 1329.13 405.333 1321.14 398.509L1300.67 380.67C1291.7 373.066 1284.09 364.487 1277.85 354.933C1271.81 345.185 1268.79 333.194 1268.79 318.961C1268.79 298.879 1274.74 283.574 1286.63 273.045C1298.52 262.322 1314.7 256.96 1335.18 256.96C1347.85 256.96 1357.99 259.105 1365.59 263.394C1373.39 267.684 1379.24 273.338 1383.14 280.357C1387.23 287.181 1389.96 294.492 1391.33 302.291C1392.89 309.895 1393.77 317.206 1393.96 324.225L1348.92 329.782C1348.73 322.763 1348.24 316.719 1347.46 311.65C1346.87 306.385 1345.51 302.388 1343.37 299.659C1341.22 296.734 1337.91 295.272 1333.42 295.272C1328.55 295.272 1324.94 297.319 1322.6 301.414C1320.46 305.508 1319.38 309.602 1319.38 313.697C1319.38 322.471 1321.43 329.684 1325.53 335.339C1329.81 340.798 1335.37 346.55 1342.2 352.594L1361.79 369.849C1372.12 378.622 1380.8 388.566 1387.82 399.679C1395.03 410.793 1398.64 424.538 1398.64 440.916C1398.64 452.029 1396.11 462.168 1391.04 471.331C1385.97 480.3 1378.75 487.416 1369.39 492.681C1360.23 497.945 1349.31 500.577 1336.64 500.577Z" stroke="white" stroke-opacity="0.05" stroke-width="4" mask="url(#path-1-outside-1_979_27)"/>
</svg>
