<svg width="1225" height="377" viewBox="0 0 1225 377" fill="none" xmlns="http://www.w3.org/2000/svg">
<mask id="path-1-outside-1_860_1432" maskUnits="userSpaceOnUse" x="0" y="0" width="1225" height="377" fill="black">
<rect fill="white" width="1225" height="377"/>
<path d="M54.9374 184.626C41.662 184.626 31.1584 182.292 23.4265 177.623C15.6947 172.955 10.1511 166.245 6.79578 157.492C3.44046 148.739 1.7628 138.308 1.7628 126.199V60.333C1.7628 48.0788 3.44046 37.6481 6.79578 29.0409C10.1511 20.4338 15.6947 13.869 23.4265 9.34665C31.1584 4.67837 41.662 2.34423 54.9374 2.34423C68.3587 2.34423 78.9353 4.67837 86.6671 9.34665C94.5448 13.869 100.161 20.4338 103.517 29.0409C106.872 37.6481 108.55 48.0788 108.55 60.333V126.199C108.55 138.308 106.872 148.739 103.517 157.492C100.161 166.245 94.5448 172.955 86.6671 177.623C78.9353 182.292 68.3587 184.626 54.9374 184.626ZM54.9374 156.835C59.0221 156.835 62.0128 155.814 63.9092 153.772C65.8057 151.729 67.0457 149.103 67.6293 145.894C68.2128 142.684 68.5046 139.402 68.5046 136.047V50.7047C68.5046 47.2035 68.2128 43.9211 67.6293 40.8575C67.0457 37.6481 65.8057 35.0222 63.9092 32.9798C62.0128 30.9374 59.0221 29.9162 54.9374 29.9162C51.1444 29.9162 48.2997 30.9374 46.4032 32.9798C44.5067 35.0222 43.2667 37.6481 42.6832 40.8575C42.0996 43.9211 41.8079 47.2035 41.8079 50.7047V136.047C41.8079 139.402 42.0267 142.684 42.4643 145.894C43.0479 149.103 44.215 151.729 45.9656 153.772C47.862 155.814 50.8527 156.835 54.9374 156.835ZM178.122 184.626C164.555 184.626 153.906 182.438 146.174 178.061C138.588 173.539 133.263 167.047 130.2 158.586C127.136 149.979 125.604 139.475 125.604 127.075V4.75131H164.336V132.983C164.336 136.63 164.628 140.277 165.212 143.924C165.795 147.571 167.035 150.562 168.932 152.896C170.974 155.23 174.038 156.397 178.122 156.397C182.353 156.397 185.417 155.23 187.313 152.896C189.21 150.562 190.377 147.571 190.814 143.924C191.398 140.277 191.69 136.63 191.69 132.983V4.75131H230.641V127.075C230.641 139.475 229.036 149.979 225.826 158.586C222.763 167.047 217.438 173.539 209.852 178.061C202.266 182.438 191.69 184.626 178.122 184.626ZM250.092 182V4.75131H298.89C310.853 4.75131 321.21 6.06426 329.963 8.69017C338.716 11.3161 345.5 16.0573 350.314 22.9138C355.274 29.6245 357.754 39.1799 357.754 51.58C357.754 58.8742 357.171 65.366 356.004 71.0554C354.837 76.7449 352.648 81.705 349.439 85.9356C346.375 90.0203 341.926 93.4486 336.091 96.2204L360.38 182H319.897L300.422 102.566H289.262V182H250.092ZM289.262 80.0273H300.203C305.747 80.0273 310.05 79.0791 313.114 77.1826C316.177 75.1402 318.293 72.2955 319.46 68.6484C320.773 64.8554 321.429 60.333 321.429 55.0812C321.429 47.4952 320.043 41.5869 317.272 37.3563C314.5 33.1257 309.394 31.0104 301.954 31.0104H289.262V80.0273ZM473.397 184.626C462.31 184.626 453.046 182.656 445.606 178.718C438.166 174.779 432.549 168.725 428.756 160.555C424.963 152.24 422.848 141.517 422.41 128.388L455.891 123.355C456.037 130.941 456.693 137.068 457.86 141.736C459.173 146.404 460.924 149.76 463.112 151.802C465.446 153.844 468.218 154.866 471.427 154.866C475.512 154.866 478.138 153.48 479.305 150.708C480.618 147.936 481.274 145.018 481.274 141.955C481.274 134.661 479.524 128.534 476.023 123.574C472.521 118.468 467.78 113.362 461.799 108.256L446.481 94.9074C439.771 89.218 434.081 82.7991 429.413 75.6508C424.89 68.3566 422.629 59.3848 422.629 48.7352C422.629 33.7092 427.079 22.2574 435.978 14.3796C444.876 6.35603 456.985 2.34423 472.303 2.34423C481.785 2.34423 489.371 3.94895 495.06 7.1584C500.896 10.3678 505.272 14.5985 508.19 19.8503C511.254 24.9562 513.296 30.4268 514.317 36.2622C515.484 41.9517 516.141 47.4223 516.287 52.6741L482.587 56.8318C482.442 51.58 482.077 47.0576 481.493 43.2646C481.056 39.3258 480.034 36.3351 478.43 34.2928C476.825 32.1045 474.345 31.0104 470.99 31.0104C467.343 31.0104 464.644 32.5422 462.893 35.6057C461.288 38.6693 460.486 41.7328 460.486 44.7964C460.486 51.3612 462.018 56.7588 465.081 60.9895C468.291 65.0742 472.449 69.3778 477.554 73.9002L492.216 86.8109C499.948 93.3757 506.439 100.816 511.691 109.131C517.089 117.446 519.788 127.731 519.788 139.985C519.788 148.301 517.891 155.887 514.098 162.743C510.305 169.454 504.908 174.779 497.905 178.718C491.049 182.656 482.879 184.626 473.397 184.626ZM533.283 182V4.75131H612.936V31.448H572.453V75.432H603.307V102.566H572.453V155.522H613.373V182H533.283ZM625.686 182V4.75131H674.484C686.446 4.75131 696.804 6.06426 705.557 8.69017C714.31 11.3161 721.094 16.0573 725.908 22.9138C730.868 29.6245 733.348 39.1799 733.348 51.58C733.348 58.8742 732.764 65.366 731.597 71.0554C730.43 76.7449 728.242 81.705 725.032 85.9356C721.969 90.0203 717.519 93.4486 711.684 96.2204L735.974 182H695.491L676.016 102.566H664.855V182H625.686ZM664.855 80.0273H675.797C681.34 80.0273 685.644 79.0791 688.707 77.1826C691.771 75.1402 693.886 72.2955 695.053 68.6484C696.366 64.8554 697.023 60.333 697.023 55.0812C697.023 47.4952 695.637 41.5869 692.865 37.3563C690.093 33.1257 684.987 31.0104 677.547 31.0104H664.855V80.0273ZM772.494 182L740.545 4.75131H774.025L793.063 125.105L810.788 4.75131H846.238L813.852 182H772.494ZM858.791 182V4.75131H897.961V182H858.791ZM969.688 184.626C956.267 184.626 945.617 182.219 937.739 177.405C930.008 172.445 924.537 165.588 921.328 156.835C918.118 147.936 916.513 137.505 916.513 125.543V61.646C916.513 49.3917 918.118 38.8881 921.328 30.1351C924.537 21.2362 930.008 14.3796 937.739 9.56547C945.617 4.75131 956.267 2.34423 969.688 2.34423C982.817 2.34423 993.029 4.53249 1000.32 8.909C1007.76 13.1396 1013.02 19.1209 1016.08 26.8527C1019.14 34.5845 1020.67 43.4834 1020.67 53.5494V68.8672H982.38V51.1423C982.38 47.6411 982.161 44.2858 981.723 41.0763C981.432 37.8669 980.41 35.241 978.66 33.1986C976.909 31.0104 973.919 29.9162 969.688 29.9162C965.603 29.9162 962.54 31.0104 960.497 33.1986C958.601 35.3869 957.361 38.1587 956.777 41.514C956.34 44.7234 956.121 48.1517 956.121 51.7988V135.171C956.121 139.11 956.413 142.757 956.996 146.113C957.725 149.322 959.038 151.948 960.935 153.99C962.977 155.887 965.895 156.835 969.688 156.835C973.773 156.835 976.69 155.814 978.441 153.772C980.192 151.583 981.286 148.811 981.723 145.456C982.161 142.101 982.38 138.673 982.38 135.171V116.571H1020.67V131.889C1020.67 141.955 1019.14 151 1016.08 159.023C1013.16 166.901 1007.98 173.174 1000.54 177.842C993.248 182.365 982.963 184.626 969.688 184.626ZM1036.75 182V4.75131H1116.41V31.448H1075.92V75.432H1106.78V102.566H1075.92V155.522H1116.84V182H1036.75ZM1176.2 184.626C1165.12 184.626 1155.85 182.656 1148.41 178.718C1140.97 174.779 1135.36 168.725 1131.56 160.555C1127.77 152.24 1125.65 141.517 1125.22 128.388L1158.7 123.355C1158.84 130.941 1159.5 137.068 1160.67 141.736C1161.98 146.404 1163.73 149.76 1165.92 151.802C1168.25 153.844 1171.02 154.866 1174.23 154.866C1178.32 154.866 1180.94 153.48 1182.11 150.708C1183.42 147.936 1184.08 145.018 1184.08 141.955C1184.08 134.661 1182.33 128.534 1178.83 123.574C1175.33 118.468 1170.59 113.362 1164.61 108.256L1149.29 94.9074C1142.58 89.218 1136.89 82.7991 1132.22 75.6508C1127.7 68.3566 1125.44 59.3848 1125.44 48.7352C1125.44 33.7092 1129.88 22.2574 1138.78 14.3796C1147.68 6.35603 1159.79 2.34423 1175.11 2.34423C1184.59 2.34423 1192.18 3.94895 1197.87 7.1584C1203.7 10.3678 1208.08 14.5985 1211 19.8503C1214.06 24.9562 1216.1 30.4268 1217.12 36.2622C1218.29 41.9517 1218.95 47.4223 1219.09 52.6741L1185.39 56.8318C1185.25 51.58 1184.88 47.0576 1184.3 43.2646C1183.86 39.3258 1182.84 36.3351 1181.24 34.2928C1179.63 32.1045 1177.15 31.0104 1173.8 31.0104C1170.15 31.0104 1167.45 32.5422 1165.7 35.6057C1164.09 38.6693 1163.29 41.7328 1163.29 44.7964C1163.29 51.3612 1164.82 56.7588 1167.89 60.9895C1171.1 65.0742 1175.25 69.3778 1180.36 73.9002L1195.02 86.8109C1202.75 93.3757 1209.25 100.816 1214.5 109.131C1219.9 117.446 1222.59 127.731 1222.59 139.985C1222.59 148.301 1220.7 155.887 1216.9 162.743C1213.11 169.454 1207.71 174.779 1200.71 178.718C1193.85 182.656 1185.69 184.626 1176.2 184.626ZM111.694 372L90.2486 194.751H123.51L134.014 298.037L147.362 194.97H173.402L187.407 297.38L198.13 194.751H230.953L209.727 372H175.591L160.492 264.994L146.268 372H111.694ZM244.579 372V194.751H324.231V221.448H283.749V265.432H314.603V292.566H283.749V345.522H324.669V372H244.579ZM387.499 372V194.751H447.02C457.669 194.751 466.422 196.794 473.279 200.878C480.135 204.817 485.241 210.653 488.597 218.384C491.952 225.97 493.63 235.234 493.63 246.175C493.63 259.888 491.368 270.392 486.846 277.686C482.324 284.834 476.196 289.795 468.465 292.566C460.733 295.338 452.053 296.724 442.424 296.724H426.669V372H387.499ZM426.669 269.371H439.798C444.613 269.371 448.26 268.496 450.74 266.745C453.22 264.994 454.824 262.368 455.554 258.867C456.429 255.366 456.867 250.917 456.867 245.519C456.867 240.996 456.502 237.058 455.773 233.702C455.189 230.201 453.657 227.429 451.177 225.387C448.697 223.345 444.831 222.323 439.58 222.323H426.669V269.371ZM507.041 372V194.751H555.839C567.802 194.751 578.159 196.064 586.912 198.69C595.665 201.316 602.449 206.057 607.263 212.914C612.223 219.624 614.703 229.18 614.703 241.58C614.703 248.874 614.12 255.366 612.953 261.055C611.786 266.745 609.597 271.705 606.388 275.936C603.324 280.02 598.875 283.449 593.04 286.22L617.329 372H576.846L557.371 292.566H546.211V372H507.041ZM546.211 270.027H557.152C562.696 270.027 566.999 269.079 570.063 267.183C573.126 265.14 575.242 262.295 576.409 258.648C577.722 254.855 578.378 250.333 578.378 245.081C578.378 237.495 576.992 231.587 574.221 227.356C571.449 223.126 566.343 221.01 558.903 221.01H546.211V270.027ZM681.838 374.626C668.563 374.626 658.059 372.292 650.327 367.623C642.596 362.955 637.052 356.245 633.697 347.492C630.341 338.739 628.664 328.308 628.664 316.199V250.333C628.664 238.079 630.341 227.648 633.697 219.041C637.052 210.434 642.596 203.869 650.327 199.347C658.059 194.678 668.563 192.344 681.838 192.344C695.26 192.344 705.836 194.678 713.568 199.347C721.446 203.869 727.062 210.434 730.418 219.041C733.773 227.648 735.451 238.079 735.451 250.333V316.199C735.451 328.308 733.773 338.739 730.418 347.492C727.062 356.245 721.446 362.955 713.568 367.623C705.836 372.292 695.26 374.626 681.838 374.626ZM681.838 346.835C685.923 346.835 688.914 345.814 690.81 343.772C692.707 341.729 693.947 339.103 694.53 335.894C695.114 332.684 695.405 329.402 695.405 326.047V240.705C695.405 237.203 695.114 233.921 694.53 230.858C693.947 227.648 692.707 225.022 690.81 222.98C688.914 220.937 685.923 219.916 681.838 219.916C678.045 219.916 675.201 220.937 673.304 222.98C671.408 225.022 670.168 227.648 669.584 230.858C669.001 233.921 668.709 237.203 668.709 240.705V326.047C668.709 329.402 668.928 332.684 669.365 335.894C669.949 339.103 671.116 341.729 672.866 343.772C674.763 345.814 677.754 346.835 681.838 346.835ZM775.742 372L743.793 194.751H777.274L796.311 315.105L814.036 194.751H849.486L817.1 372H775.742ZM862.039 372V194.751H901.209V372H862.039ZM922.169 372V194.751H967.028C982.492 194.751 994.527 196.721 1003.13 200.66C1011.74 204.453 1017.8 210.507 1021.3 218.822C1024.8 226.992 1026.55 237.641 1026.55 250.771V315.105C1026.55 328.381 1024.8 339.249 1021.3 347.71C1017.8 356.026 1011.74 362.153 1003.13 366.092C994.673 370.031 982.783 372 967.465 372H922.169ZM961.338 344.866H967.465C973.447 344.866 977.75 343.99 980.376 342.24C983.002 340.489 984.607 337.863 985.19 334.362C985.92 330.861 986.284 326.484 986.284 321.232V243.987C986.284 238.735 985.847 234.505 984.972 231.295C984.242 228.086 982.564 225.752 979.939 224.293C977.313 222.834 973.082 222.104 967.247 222.104H961.338V344.866ZM1044.92 372V194.751H1124.57V221.448H1084.09V265.432H1114.94V292.566H1084.09V345.522H1125.01V372H1044.92Z"/>
</mask>
<path d="M23.4265 177.623L22.548 179.078L23.4265 177.623ZM6.79578 157.492L5.20876 158.1L6.79578 157.492ZM6.79578 29.0409L5.21222 28.4236L6.79578 29.0409ZM23.4265 9.34665L24.2846 10.8138L24.2949 10.8078L24.305 10.8016L23.4265 9.34665ZM86.6671 9.34665L85.7886 10.8016L85.8047 10.8113L85.8209 10.8207L86.6671 9.34665ZM103.517 29.0409L101.933 29.6583L103.517 29.0409ZM103.517 157.492L101.93 156.883L103.517 157.492ZM86.6671 177.623L85.8006 176.161L85.7886 176.168L86.6671 177.623ZM63.9092 153.771L62.6638 152.615L63.9092 153.771ZM67.6293 145.894L69.3015 146.198L67.6293 145.894ZM67.6293 40.8575L65.9571 41.1616L65.9583 41.1686L65.9597 41.1755L67.6293 40.8575ZM63.9092 32.9798L62.6638 34.1363L63.9092 32.9798ZM46.4032 32.9798L47.6487 34.1363H47.6487L46.4032 32.9798ZM42.6832 40.8575L44.3528 41.1755L44.3541 41.1686L44.3554 41.1616L42.6832 40.8575ZM42.4643 145.894L40.7803 146.123L40.7854 146.161L40.7921 146.198L42.4643 145.894ZM45.9656 153.771L44.6751 154.878L44.6971 154.903L44.7201 154.928L45.9656 153.771ZM54.9374 182.926C41.8354 182.926 31.6754 180.619 24.305 176.168L22.548 179.078C30.6414 183.965 41.4886 186.326 54.9374 186.326V182.926ZM24.305 176.168C16.91 171.704 11.6083 165.297 8.38281 156.883L5.20876 158.1C8.69394 167.192 14.4794 174.207 22.548 179.078L24.305 176.168ZM8.38281 156.883C5.12012 148.372 3.46243 138.158 3.46243 126.199H0.0631561C0.0631561 138.458 1.7608 149.105 5.20876 158.1L8.38281 156.883ZM3.46243 126.199V60.333H0.0631561V126.199H3.46243ZM3.46243 60.333C3.46243 48.2249 5.12128 38.0159 8.37935 29.6583L5.21222 28.4236C1.75964 37.2802 0.0631561 47.9327 0.0631561 60.333H3.46243ZM8.37935 29.6583C11.6003 21.396 16.8945 15.1363 24.2846 10.8138L22.5684 7.87955C14.4949 12.6018 8.70197 19.4717 5.21222 28.4236L8.37935 29.6583ZM24.305 10.8016C31.6754 6.35162 41.8354 4.04386 54.9374 4.04386V0.644597C41.4886 0.644597 30.6414 3.00512 22.548 7.89165L24.305 10.8016ZM54.9374 4.04386C68.1894 4.04386 78.4206 6.35305 85.7886 10.8016L87.5456 7.89165C79.4499 3.00369 68.528 0.644597 54.9374 0.644597V4.04386ZM85.8209 10.8207C93.3561 15.1464 98.716 21.4058 101.933 29.6583L105.1 28.4236C101.607 19.4618 95.7335 12.5917 87.5133 7.87264L85.8209 10.8207ZM101.933 29.6583C105.191 38.0159 106.85 48.2249 106.85 60.333H110.249C110.249 47.9327 108.553 37.2802 105.1 28.4236L101.933 29.6583ZM106.85 60.333V126.199H110.249V60.333H106.85ZM106.85 126.199C106.85 138.158 105.192 148.372 101.93 156.883L105.104 158.1C108.552 149.105 110.249 138.458 110.249 126.199H106.85ZM101.93 156.883C98.7079 165.288 93.3405 171.693 85.8006 176.161L87.5336 179.086C95.7492 174.217 101.615 167.201 105.104 158.1L101.93 156.883ZM85.7886 176.168C78.4206 180.617 68.1894 182.926 54.9374 182.926V186.326C68.528 186.326 79.4499 183.966 87.5456 179.078L85.7886 176.168ZM54.9374 158.535C59.2728 158.535 62.8116 157.451 65.1547 154.928L62.6638 152.615C61.2139 154.176 58.7715 155.135 54.9374 155.135V158.535ZM65.1547 154.928C67.3073 152.61 68.67 149.671 69.3015 146.198L65.9571 145.59C65.4215 148.536 64.3042 150.848 62.6638 152.615L65.1547 154.928ZM69.3015 146.198C69.9038 142.885 70.2042 139.501 70.2042 136.047H66.8049C66.8049 139.303 66.5219 142.483 65.9571 145.59L69.3015 146.198ZM70.2042 136.047V50.7047H66.8049V136.047H70.2042ZM70.2042 50.7047C70.2042 47.1095 69.9047 43.7197 69.2989 40.5395L65.9597 41.1755C66.521 44.1224 66.8049 47.2974 66.8049 50.7047H70.2042ZM69.3015 40.5535C68.67 37.0804 67.3073 34.1414 65.1547 31.8233L62.6638 34.1363C64.3042 35.9029 65.4215 38.2158 65.9571 41.1616L69.3015 40.5535ZM65.1547 31.8233C62.8116 29.2999 59.2728 28.2166 54.9374 28.2166V31.6159C58.7715 31.6159 61.2139 32.5749 62.6638 34.1363L65.1547 31.8233ZM54.9374 28.2166C50.8488 28.2166 47.4792 29.3233 45.1577 31.8233L47.6487 34.1363C49.1202 32.5516 51.44 31.6159 54.9374 31.6159V28.2166ZM45.1577 31.8233C43.0052 34.1414 41.6424 37.0804 41.011 40.5535L44.3554 41.1616C44.891 38.2158 46.0083 35.9029 47.6487 34.1363L45.1577 31.8233ZM41.0135 40.5395C40.4078 43.7197 40.1082 47.1095 40.1082 50.7047H43.5075C43.5075 47.2974 43.7915 44.1224 44.3528 41.1755L41.0135 40.5395ZM40.1082 50.7047V136.047H43.5075V50.7047H40.1082ZM40.1082 136.047C40.1082 139.476 40.3319 142.835 40.7803 146.123L44.1484 145.664C43.7215 142.533 43.5075 139.328 43.5075 136.047H40.1082ZM40.7921 146.198C41.4181 149.641 42.6906 152.562 44.6751 154.878L47.256 152.665C45.7393 150.896 44.6776 148.566 44.1366 145.59L40.7921 146.198ZM44.7201 154.928C47.0632 157.451 50.6021 158.535 54.9374 158.535V155.135C51.1033 155.135 48.6609 154.176 47.211 152.615L44.7201 154.928ZM146.174 178.061L145.304 179.521L145.32 179.531L145.337 179.54L146.174 178.061ZM130.2 158.586L128.598 159.156L128.602 159.164L130.2 158.586ZM125.604 4.75131V3.05167H123.905V4.75131H125.604ZM164.336 4.75131H166.036V3.05167H164.336V4.75131ZM165.212 143.924L166.89 143.656L165.212 143.924ZM168.932 152.896L167.613 153.968L167.632 153.992L167.653 154.015L168.932 152.896ZM187.313 152.896L188.632 153.968L187.313 152.896ZM190.814 143.924L189.136 143.656L189.131 143.689L189.127 143.722L190.814 143.924ZM191.69 4.75131V3.05167H189.99V4.75131H191.69ZM230.641 4.75131H232.34V3.05167H230.641V4.75131ZM225.826 158.586L224.234 157.992L224.231 157.999L224.228 158.007L225.826 158.586ZM209.852 178.061L210.702 179.533L210.712 179.527L210.723 179.521L209.852 178.061ZM178.122 182.926C164.707 182.926 154.387 180.757 147.011 176.582L145.337 179.54C153.424 184.118 164.404 186.326 178.122 186.326V182.926ZM147.044 176.601C139.802 172.284 134.731 166.107 131.798 158.007L128.602 159.164C131.796 167.987 137.374 174.794 145.304 179.521L147.044 176.601ZM131.801 158.016C128.821 149.644 127.304 139.345 127.304 127.075H123.905C123.905 139.604 125.451 150.313 128.598 159.156L131.801 158.016ZM127.304 127.075V4.75131H123.905V127.075H127.304ZM125.604 6.45094H164.336V3.05167H125.604V6.45094ZM162.637 4.75131V132.983H166.036V4.75131H162.637ZM162.637 132.983C162.637 136.721 162.936 140.458 163.534 144.193L166.89 143.656C166.321 140.096 166.036 136.539 166.036 132.983H162.637ZM163.534 144.193C164.153 148.068 165.49 151.355 167.613 153.968L170.251 151.824C168.581 149.769 167.437 147.075 166.89 143.656L163.534 144.193ZM167.653 154.015C170.112 156.827 173.712 158.097 178.122 158.097V154.698C174.363 154.698 171.836 153.634 170.211 151.777L167.653 154.015ZM178.122 158.097C182.647 158.097 186.297 156.842 188.632 153.968L185.994 151.824C184.536 153.618 182.06 154.698 178.122 154.698V158.097ZM188.632 153.968C190.772 151.335 192.034 148.022 192.502 144.127L189.127 143.722C188.719 147.121 187.647 149.79 185.994 151.824L188.632 153.968ZM192.493 144.193C193.09 140.458 193.389 136.721 193.389 132.983H189.99C189.99 136.539 189.706 140.096 189.136 143.656L192.493 144.193ZM193.389 132.983V4.75131H189.99V132.983H193.389ZM191.69 6.45094H230.641V3.05167H191.69V6.45094ZM228.941 4.75131V127.075H232.34V4.75131H228.941ZM228.941 127.075C228.941 139.339 227.353 149.628 224.234 157.992L227.419 159.179C230.719 150.329 232.34 139.611 232.34 127.075H228.941ZM224.228 158.007C221.296 166.107 216.224 172.284 208.982 176.601L210.723 179.521C218.652 174.794 224.23 167.987 227.425 159.164L224.228 158.007ZM209.003 176.589C201.78 180.756 191.541 182.926 178.122 182.926V186.326C191.838 186.326 202.753 184.119 210.702 179.533L209.003 176.589ZM250.092 182H248.393V183.7H250.092V182ZM250.092 4.75131V3.05167H248.393V4.75131H250.092ZM350.314 22.9138L348.923 23.8905L348.935 23.9074L348.947 23.9241L350.314 22.9138ZM356.004 71.0555L354.339 70.7139L356.004 71.0555ZM349.439 85.9356L348.085 84.9083L348.079 84.9158L349.439 85.9356ZM336.091 96.2204L335.361 94.6852L334.064 95.3014L334.455 96.6835L336.091 96.2204ZM360.38 182V183.7H362.628L362.016 181.537L360.38 182ZM319.897 182L318.247 182.405L318.564 183.7H319.897V182ZM300.422 102.566L302.073 102.162L301.755 100.867H300.422V102.566ZM289.262 102.566V100.867H287.562V102.566H289.262ZM289.262 182V183.7H290.962V182H289.262ZM289.262 80.0273H287.562V81.7269H289.262V80.0273ZM313.114 77.1826L314.009 78.6277L314.033 78.6126L314.057 78.5967L313.114 77.1826ZM319.46 68.6484L317.854 68.0924L317.847 68.1113L317.841 68.1304L319.46 68.6484ZM317.272 37.3563L315.85 38.2878L317.272 37.3563ZM289.262 31.0104V29.3107H287.562V31.0104H289.262ZM251.792 182V4.75131H248.393V182H251.792ZM250.092 6.45094H298.89V3.05167H250.092V6.45094ZM298.89 6.45094C310.735 6.45094 320.921 7.75181 329.475 10.3181L330.452 7.06221C321.5 4.37671 310.97 3.05167 298.89 3.05167V6.45094ZM329.475 10.3181C337.898 12.845 344.349 17.3751 348.923 23.8905L351.705 21.9372C346.652 14.7395 339.535 9.78716 330.452 7.06221L329.475 10.3181ZM348.947 23.9241C353.609 30.231 356.055 39.3752 356.055 51.58H359.454C359.454 38.9845 356.94 29.018 351.681 21.9036L348.947 23.9241ZM356.055 51.58C356.055 58.7872 355.478 65.1611 354.339 70.7139L357.669 71.397C358.864 65.5709 359.454 58.9612 359.454 51.58H356.055ZM354.339 70.7139C353.218 76.1781 351.127 80.8986 348.085 84.9084L350.793 86.9628C354.17 82.5113 356.455 77.3117 357.669 71.397L354.339 70.7139ZM348.079 84.9158C345.219 88.7294 341.012 92.0009 335.361 94.6852L336.82 97.7556C342.84 94.8963 347.532 91.3113 350.799 86.9554L348.079 84.9158ZM334.455 96.6835L358.745 182.463L362.016 181.537L337.726 95.7573L334.455 96.6835ZM360.38 180.3H319.897V183.7H360.38V180.3ZM321.548 181.595L302.073 102.162L298.771 102.971L318.247 182.405L321.548 181.595ZM300.422 100.867H289.262V104.266H300.422V100.867ZM287.562 102.566V182H290.962V102.566H287.562ZM289.262 180.3H250.092V183.7H289.262V180.3ZM289.262 81.7269H300.203V78.3277H289.262V81.7269ZM300.203 81.7269C305.906 81.7269 310.568 80.7573 314.009 78.6277L312.219 75.7374C309.532 77.4008 305.588 78.3277 300.203 78.3277V81.7269ZM314.057 78.5967C317.454 76.3318 319.799 73.1643 321.079 69.1664L317.841 68.1304C316.786 71.4266 314.901 73.9486 312.171 75.7684L314.057 78.5967ZM321.066 69.2043C322.457 65.187 323.129 60.4672 323.129 55.0812H319.73C319.73 60.1988 319.089 64.5238 317.854 68.0924L321.066 69.2043ZM323.129 55.0812C323.129 47.3192 321.716 41.0384 318.693 36.4249L315.85 38.2878C318.371 42.1355 319.73 47.6712 319.73 55.0812H323.129ZM318.693 36.4249C315.477 31.5151 309.678 29.3107 301.954 29.3107V32.71C309.11 32.71 313.523 34.7363 315.85 38.2878L318.693 36.4249ZM301.954 29.3107H289.262V32.71H301.954V29.3107ZM287.562 31.0104V80.0273H290.962V31.0104H287.562ZM445.606 178.718L444.811 180.22L445.606 178.718ZM428.756 160.555L427.21 161.26L427.215 161.271L428.756 160.555ZM422.41 128.388L422.158 126.707L420.661 126.932L420.712 128.444L422.41 128.388ZM455.891 123.355L457.59 123.322L457.553 121.386L455.638 121.674L455.891 123.355ZM457.86 141.736L456.211 142.148L456.217 142.172L456.224 142.196L457.86 141.736ZM463.112 151.802L461.952 153.045L461.972 153.063L461.993 153.081L463.112 151.802ZM479.305 150.708L477.769 149.98L477.753 150.014L477.739 150.048L479.305 150.708ZM476.023 123.574L474.621 124.535L474.627 124.544L474.634 124.554L476.023 123.574ZM461.799 108.256L460.682 109.537L460.689 109.543L460.695 109.548L461.799 108.256ZM446.481 94.9074L447.598 93.6261L447.589 93.6185L447.58 93.611L446.481 94.9074ZM429.413 75.6508L427.968 76.5464L427.979 76.5634L427.99 76.5801L429.413 75.6508ZM435.978 14.3796L437.104 15.6523L437.11 15.6471L437.116 15.6419L435.978 14.3796ZM495.06 7.1584L494.225 8.63874L494.233 8.64323L494.241 8.64764L495.06 7.1584ZM508.19 19.8503L506.704 20.6757L506.718 20.7004L506.733 20.7247L508.19 19.8503ZM514.317 36.2622L512.643 36.5552L512.647 36.5795L512.652 36.6037L514.317 36.2622ZM516.287 52.6741L516.495 54.361L518.028 54.1717L517.986 52.6269L516.287 52.6741ZM482.587 56.8318L480.888 56.879L480.94 58.7475L482.796 58.5186L482.587 56.8318ZM481.493 43.2646L479.804 43.4523L479.808 43.4878L479.813 43.5231L481.493 43.2646ZM478.43 34.2928L477.059 35.2979L477.076 35.3206L477.093 35.3428L478.43 34.2928ZM462.893 35.6057L461.417 34.7625L461.402 34.7895L461.388 34.8171L462.893 35.6057ZM465.081 60.9895L463.705 61.9863L463.724 62.0133L463.745 62.0395L465.081 60.9895ZM477.554 73.9002L476.427 75.1725L476.431 75.1757L477.554 73.9002ZM492.216 86.8109L491.092 88.0864L491.104 88.0966L491.116 88.1065L492.216 86.8109ZM511.691 109.131L510.254 110.039L510.26 110.048L510.266 110.056L511.691 109.131ZM514.098 162.743L515.578 163.58L515.582 163.573L515.586 163.566L514.098 162.743ZM497.905 178.718L497.072 177.236L497.065 177.24L497.059 177.244L497.905 178.718ZM473.397 182.926C462.502 182.926 453.531 180.99 446.401 177.215L444.811 180.22C452.561 184.323 462.117 186.326 473.397 186.326V182.926ZM446.401 177.215C439.313 173.463 433.946 167.697 430.298 159.839L427.215 161.271C431.152 169.752 437.019 176.095 444.811 180.22L446.401 177.215ZM430.303 159.85C426.634 151.807 424.542 141.327 424.109 128.331L420.712 128.444C421.154 141.708 423.293 152.672 427.21 161.26L430.303 159.85ZM422.663 130.068L456.143 125.036L455.638 121.674L422.158 126.707L422.663 130.068ZM454.191 123.387C454.339 131.037 455.001 137.306 456.211 142.148L459.509 141.324C458.385 136.83 457.735 130.844 457.59 123.322L454.191 123.387ZM456.224 142.196C457.574 146.997 459.436 150.696 461.952 153.045L464.272 150.56C462.411 148.823 460.772 145.812 459.496 141.276L456.224 142.196ZM461.993 153.081C464.648 155.405 467.822 156.565 471.427 156.565V153.166C468.614 153.166 466.244 152.284 464.231 150.523L461.993 153.081ZM471.427 156.565C473.648 156.565 475.622 156.191 477.254 155.329C478.919 154.45 480.138 153.11 480.871 151.368L477.739 150.048C477.305 151.077 476.628 151.816 475.667 152.323C474.673 152.848 473.292 153.166 471.427 153.166V156.565ZM480.841 151.436C482.262 148.437 482.974 145.27 482.974 141.955H479.575C479.575 144.767 478.974 147.436 477.769 149.98L480.841 151.436ZM482.974 141.955C482.974 134.382 481.153 127.894 477.411 122.593L474.634 124.554C477.895 129.173 479.575 134.94 479.575 141.955H482.974ZM477.424 122.612C473.82 117.355 468.968 112.141 462.903 106.963L460.695 109.548C466.592 114.582 471.223 119.58 474.621 124.535L477.424 122.612ZM462.916 106.974L447.598 93.6261L445.365 96.1888L460.682 109.537L462.916 106.974ZM447.58 93.611C440.991 88.0244 435.412 81.7282 430.836 74.7214L427.99 76.5801C432.75 83.8699 438.55 90.4116 445.382 96.2038L447.58 93.611ZM430.857 74.7552C426.538 67.788 424.329 59.1443 424.329 48.7352H420.93C420.93 59.6252 423.243 68.9253 427.968 76.5464L430.857 74.7552ZM424.329 48.7352C424.329 34.0579 428.662 23.126 437.104 15.6523L434.851 13.107C425.496 21.3888 420.93 33.3606 420.93 48.7352H424.329ZM437.116 15.6419C445.623 7.97144 457.284 4.04386 472.303 4.04386V0.644597C456.685 0.644597 444.13 4.74062 434.839 13.1173L437.116 15.6419ZM472.303 4.04386C481.616 4.04386 488.88 5.62356 494.225 8.63874L495.896 5.67805C489.862 2.27435 481.954 0.644597 472.303 0.644597V4.04386ZM494.241 8.64764C499.828 11.7202 503.958 15.7332 506.704 20.6757L509.676 19.0249C506.586 13.4637 501.964 9.01546 495.88 5.66915L494.241 8.64764ZM506.733 20.7247C509.689 25.6527 511.658 30.9264 512.643 36.5552L515.991 35.9692C514.934 29.9273 512.818 24.2597 509.647 18.9758L506.733 20.7247ZM512.652 36.6037C513.801 42.2063 514.445 47.5781 514.588 52.7213L517.986 52.6269C517.837 47.2665 517.167 41.697 515.982 35.9207L512.652 36.6037ZM516.078 50.9873L482.379 55.1449L482.796 58.5186L516.495 54.361L516.078 50.9873ZM484.286 56.7846C484.139 51.4859 483.771 46.8892 483.173 43.0062L479.813 43.5231C480.383 47.2259 480.744 51.6741 480.888 56.879L484.286 56.7846ZM483.183 43.0769C482.727 38.9765 481.644 35.6324 479.766 33.2427L477.093 35.3428C478.425 37.0379 479.384 39.675 479.804 43.4523L483.183 43.0769ZM479.8 33.2877C477.799 30.559 474.743 29.3107 470.99 29.3107V32.71C473.947 32.71 475.851 33.65 477.059 35.2979L479.8 33.2877ZM470.99 29.3107C466.758 29.3107 463.483 31.1477 461.417 34.7625L464.369 36.449C465.804 33.9366 467.927 32.71 470.99 32.71V29.3107ZM461.388 34.8171C459.672 38.0922 458.786 41.4244 458.786 44.7964H462.186C462.186 42.0412 462.905 39.2463 464.399 36.3944L461.388 34.8171ZM458.786 44.7964C458.786 51.6264 460.383 57.3987 463.705 61.9863L466.458 59.9926C463.653 56.119 462.186 51.0959 462.186 44.7964H458.786ZM463.745 62.0395C467.033 66.2249 471.267 70.6021 476.427 75.1725L478.681 72.6279C473.63 68.1534 469.548 63.9236 466.418 59.9394L463.745 62.0395ZM476.431 75.1757L491.092 88.0864L493.339 85.5353L478.678 72.6246L476.431 75.1757ZM491.116 88.1065C498.72 94.5633 505.097 101.874 510.254 110.039L513.128 108.224C507.782 99.7579 501.175 92.188 493.316 85.5153L491.116 88.1065ZM510.266 110.056C515.446 118.038 518.088 127.982 518.088 139.986H521.487C521.487 127.481 518.731 116.855 513.117 108.206L510.266 110.056ZM518.088 139.986C518.088 148.031 516.256 155.331 512.611 161.921L515.586 163.566C519.526 156.442 521.487 148.57 521.487 139.986H518.088ZM512.619 161.907C508.985 168.336 503.816 173.443 497.072 177.236L498.738 180.199C505.999 176.115 511.626 170.572 515.578 163.58L512.619 161.907ZM497.059 177.244C490.507 181.008 482.641 182.926 473.397 182.926V186.326C483.117 186.326 491.591 184.305 498.752 180.191L497.059 177.244ZM533.283 182H531.583V183.7H533.283V182ZM533.283 4.75131V3.05167H531.583V4.75131H533.283ZM612.936 4.75131H614.635V3.05167H612.936V4.75131ZM612.936 31.448V33.1477H614.635V31.448H612.936ZM572.453 31.448V29.7484H570.753V31.448H572.453ZM572.453 75.432H570.753V77.1316H572.453V75.432ZM603.307 75.432H605.007V73.7323H603.307V75.432ZM603.307 102.566V104.266H605.007V102.566H603.307ZM572.453 102.566V100.867H570.753V102.566H572.453ZM572.453 155.522H570.753V157.222H572.453V155.522ZM613.373 155.522H615.073V153.822H613.373V155.522ZM613.373 182V183.7H615.073V182H613.373ZM534.983 182V4.75131H531.583V182H534.983ZM533.283 6.45094H612.936V3.05167H533.283V6.45094ZM611.236 4.75131V31.448H614.635V4.75131H611.236ZM612.936 29.7484H572.453V33.1477H612.936V29.7484ZM570.753 31.448V75.432H574.153V31.448H570.753ZM572.453 77.1316H603.307V73.7323H572.453V77.1316ZM601.608 75.432V102.566H605.007V75.432H601.608ZM603.307 100.867H572.453V104.266H603.307V100.867ZM570.753 102.566V155.522H574.153V102.566H570.753ZM572.453 157.222H613.373V153.822H572.453V157.222ZM611.674 155.522V182H615.073V155.522H611.674ZM613.373 180.3H533.283V183.7H613.373V180.3ZM625.686 182H623.986V183.7H625.686V182ZM625.686 4.75131V3.05167H623.986V4.75131H625.686ZM725.908 22.9138L724.517 23.8905L724.529 23.9074L724.541 23.9241L725.908 22.9138ZM731.597 71.0555L729.932 70.7139L731.597 71.0555ZM725.032 85.9356L723.678 84.9083L723.673 84.9158L725.032 85.9356ZM711.684 96.2204L710.955 94.6852L709.657 95.3014L710.049 96.6835L711.684 96.2204ZM735.974 182V183.7H738.221L737.609 181.537L735.974 182ZM695.491 182L693.84 182.405L694.158 183.7H695.491V182ZM676.016 102.566L677.666 102.162L677.349 100.867H676.016V102.566ZM664.855 102.566V100.867H663.156V102.566H664.855ZM664.855 182V183.7H666.555V182H664.855ZM664.855 80.0273H663.156V81.7269H664.855V80.0273ZM688.707 77.1826L689.602 78.6277L689.626 78.6126L689.65 78.5967L688.707 77.1826ZM695.053 68.6484L693.447 68.0924L693.441 68.1113L693.435 68.1304L695.053 68.6484ZM692.865 37.3563L691.443 38.2878L692.865 37.3563ZM664.855 31.0104V29.3107H663.156V31.0104H664.855ZM627.385 182V4.75131H623.986V182H627.385ZM625.686 6.45094H674.484V3.05167H625.686V6.45094ZM674.484 6.45094C686.329 6.45094 696.514 7.75181 705.069 10.3181L706.045 7.06221C697.094 4.37671 686.564 3.05167 674.484 3.05167V6.45094ZM705.069 10.3181C713.492 12.845 719.942 17.3751 724.517 23.8905L727.299 21.9372C722.245 14.7395 715.129 9.78716 706.045 7.06221L705.069 10.3181ZM724.541 23.9241C729.203 30.231 731.648 39.3752 731.648 51.58H735.047C735.047 38.9845 732.533 29.018 727.275 21.9036L724.541 23.9241ZM731.648 51.58C731.648 58.7872 731.071 65.1611 729.932 70.7139L733.262 71.397C734.457 65.5709 735.047 58.9612 735.047 51.58H731.648ZM729.932 70.7139C728.811 76.1781 726.72 80.8986 723.678 84.9084L726.387 86.9628C729.764 82.5113 732.049 77.3117 733.262 71.397L729.932 70.7139ZM723.673 84.9158C720.813 88.7294 716.606 92.0009 710.955 94.6852L712.413 97.7556C718.433 94.8963 723.125 91.3113 726.392 86.9554L723.673 84.9158ZM710.049 96.6835L734.338 182.463L737.609 181.537L713.319 95.7573L710.049 96.6835ZM735.974 180.3H695.491V183.7H735.974V180.3ZM697.142 181.595L677.666 102.162L674.365 102.971L693.84 182.405L697.142 181.595ZM676.016 100.867H664.855V104.266H676.016V100.867ZM663.156 102.566V182H666.555V102.566H663.156ZM664.855 180.3H625.686V183.7H664.855V180.3ZM664.855 81.7269H675.797V78.3277H664.855V81.7269ZM675.797 81.7269C681.499 81.7269 686.162 80.7573 689.602 78.6277L687.813 75.7374C685.126 77.4008 681.181 78.3277 675.797 78.3277V81.7269ZM689.65 78.5967C693.048 76.3318 695.393 73.1643 696.672 69.1664L693.435 68.1304C692.38 71.4266 690.494 73.9486 687.765 75.7684L689.65 78.5967ZM696.659 69.2043C698.05 65.187 698.722 60.4672 698.722 55.0812H695.323C695.323 60.1988 694.683 64.5238 693.447 68.0924L696.659 69.2043ZM698.722 55.0812C698.722 47.3192 697.309 41.0384 694.287 36.4249L691.443 38.2878C693.964 42.1355 695.323 47.6712 695.323 55.0812H698.722ZM694.287 36.4249C691.07 31.5151 685.271 29.3107 677.547 29.3107V32.71C684.703 32.71 689.117 34.7363 691.443 38.2878L694.287 36.4249ZM677.547 29.3107H664.855V32.71H677.547V29.3107ZM663.156 31.0104V80.0273H666.555V31.0104H663.156ZM772.494 182L770.821 182.301L771.073 183.7H772.494V182ZM740.545 4.75131V3.05167H738.512L738.872 5.0528L740.545 4.75131ZM774.025 4.75131L775.704 4.48576L775.477 3.05167H774.025V4.75131ZM793.063 125.105L791.384 125.371L794.745 125.353L793.063 125.105ZM810.788 4.75131V3.05167H809.32L809.107 4.50367L810.788 4.75131ZM846.238 4.75131L847.91 5.0568L848.276 3.05167H846.238V4.75131ZM813.852 182V183.7H815.269L815.524 182.305L813.852 182ZM774.166 181.699L742.218 4.44981L738.872 5.0528L770.821 182.301L774.166 181.699ZM740.545 6.45094H774.025V3.05167H740.545V6.45094ZM772.347 5.01686L791.384 125.371L794.742 124.84L775.704 4.48576L772.347 5.01686ZM794.745 125.353L812.47 4.99895L809.107 4.50367L791.382 124.858L794.745 125.353ZM810.788 6.45094H846.238V3.05167H810.788V6.45094ZM844.566 4.44581L812.18 181.695L815.524 182.305L847.91 5.0568L844.566 4.44581ZM813.852 180.3H772.494V183.7H813.852V180.3ZM858.791 182H857.092V183.7H858.791V182ZM858.791 4.75131V3.05167H857.092V4.75131H858.791ZM897.961 4.75131H899.661V3.05167H897.961V4.75131ZM897.961 182V183.7H899.661V182H897.961ZM860.491 182V4.75131H857.092V182H860.491ZM858.791 6.45094H897.961V3.05167H858.791V6.45094ZM896.261 4.75131V182H899.661V4.75131H896.261ZM897.961 180.3H858.791V183.7H897.961V180.3ZM937.739 177.405L936.822 178.835L936.837 178.845L936.853 178.855L937.739 177.405ZM921.328 156.835L919.729 157.412L919.732 157.42L921.328 156.835ZM921.328 30.1351L922.923 30.7202L922.926 30.7117L921.328 30.1351ZM937.739 9.56547L936.853 8.1152L936.847 8.11891L936.841 8.12266L937.739 9.56547ZM1000.32 8.909L999.449 10.3664L999.466 10.3767L999.483 10.3865L1000.32 8.909ZM1016.08 26.8527L1014.5 27.4788L1016.08 26.8527ZM1020.67 68.8672V70.5668H1022.37V68.8672H1020.67ZM982.38 68.8672H980.68V70.5668H982.38V68.8672ZM981.723 41.0763L980.031 41.2302L980.034 41.2682L980.039 41.306L981.723 41.0763ZM978.66 33.1986L977.333 34.2604L977.351 34.2829L977.369 34.3047L978.66 33.1986ZM960.497 33.1986L959.255 32.0389L959.233 32.0618L959.213 32.0855L960.497 33.1986ZM956.777 41.514L955.103 41.2228L955.097 41.2535L955.093 41.2844L956.777 41.514ZM956.996 146.113L955.322 146.404L955.329 146.447L955.339 146.489L956.996 146.113ZM960.935 153.99L959.689 155.147L959.732 155.193L959.778 155.236L960.935 153.99ZM978.441 153.771L979.731 154.878L979.75 154.856L979.768 154.833L978.441 153.771ZM981.723 145.456L980.038 145.236V145.236L981.723 145.456ZM982.38 116.571V114.872H980.68V116.571H982.38ZM1020.67 116.571H1022.37V114.872H1020.67V116.571ZM1016.08 159.023L1014.49 158.417L1014.49 158.425L1014.49 158.433L1016.08 159.023ZM1000.54 177.842L1001.44 179.287L1001.45 179.282L1000.54 177.842ZM969.688 182.926C956.446 182.926 946.142 180.548 938.626 175.954L936.853 178.855C945.092 183.89 956.088 186.326 969.688 186.326V182.926ZM938.657 175.974C931.243 171.218 926.007 164.66 922.923 156.25L919.732 157.42C923.067 166.516 928.773 173.672 936.822 178.835L938.657 175.974ZM922.926 156.258C919.799 147.586 918.213 137.359 918.213 125.543H914.814C914.814 137.652 916.438 148.286 919.729 157.412L922.926 156.258ZM918.213 125.543V61.646H914.814V125.543H918.213ZM918.213 61.646C918.213 49.5321 919.8 39.2372 922.923 30.7202L919.732 29.55C916.436 38.539 914.814 49.2514 914.814 61.646H918.213ZM922.926 30.7117C926.012 22.157 931.243 15.6124 938.638 11.0083L936.841 8.12266C928.772 13.1469 923.062 20.3153 919.729 29.5585L922.926 30.7117ZM938.626 11.0157C946.142 6.42255 956.446 4.04386 969.688 4.04386V0.644597C956.088 0.644597 945.092 3.08007 936.853 8.1152L938.626 11.0157ZM969.688 4.04386C982.663 4.04386 992.526 6.21225 999.449 10.3664L1001.2 7.45158C993.533 2.85273 982.972 0.644597 969.688 0.644597V4.04386ZM999.483 10.3865C1006.6 14.4319 1011.58 20.1179 1014.5 27.4788L1017.66 26.2266C1014.45 18.1238 1008.93 11.8474 1001.16 7.43153L999.483 10.3865ZM1014.5 27.4788C1017.47 34.9742 1018.97 43.6539 1018.97 53.5494H1022.37C1022.37 43.313 1020.82 34.1948 1017.66 26.2266L1014.5 27.4788ZM1018.97 53.5494V68.8672H1022.37V53.5494H1018.97ZM1020.67 67.1676H982.38V70.5668H1020.67V67.1676ZM984.079 68.8672V51.1423H980.68V68.8672H984.079ZM984.079 51.1423C984.079 47.5704 983.856 44.1381 983.407 40.8467L980.039 41.306C980.466 44.4335 980.68 47.7118 980.68 51.1423H984.079ZM983.416 40.9225C983.099 37.4327 981.973 34.4524 979.95 32.0925L977.369 34.3047C978.848 36.0296 979.764 38.3011 980.031 41.2302L983.416 40.9225ZM979.987 32.1369C977.777 29.374 974.166 28.2166 969.688 28.2166V31.6159C973.671 31.6159 976.042 32.6467 977.333 34.2604L979.987 32.1369ZM969.688 28.2166C965.31 28.2166 961.723 29.3948 959.255 32.0389L961.74 34.3583C963.357 32.6259 965.896 31.6159 969.688 31.6159V28.2166ZM959.213 32.0855C957.081 34.5455 955.73 37.6173 955.103 41.2228L958.452 41.8052C958.992 38.7 960.121 36.2283 961.782 34.3118L959.213 32.0855ZM955.093 41.2844C954.644 44.5787 954.421 48.0843 954.421 51.7988H957.82C957.82 48.2191 958.035 44.8682 958.461 41.7436L955.093 41.2844ZM954.421 51.7988V135.171H957.82V51.7988H954.421ZM954.421 135.171C954.421 139.193 954.719 142.939 955.322 146.404L958.671 145.821C958.106 142.576 957.82 139.027 957.82 135.171H954.421ZM955.339 146.489C956.122 149.937 957.555 152.849 959.689 155.147L962.18 152.834C960.521 151.047 959.329 148.707 958.653 145.736L955.339 146.489ZM959.778 155.236C962.234 157.516 965.623 158.535 969.688 158.535V155.135C966.167 155.135 963.721 154.258 962.091 152.745L959.778 155.236ZM969.688 158.535C974.01 158.535 977.521 157.457 979.731 154.878L977.151 152.665C975.86 154.171 973.536 155.135 969.688 155.135V158.535ZM979.768 154.833C981.75 152.356 982.939 149.275 983.409 145.676L980.038 145.236C979.632 148.348 978.634 150.81 977.114 152.71L979.768 154.833ZM983.409 145.676C983.856 142.245 984.079 138.744 984.079 135.171H980.68C980.68 138.602 980.466 141.956 980.038 145.236L983.409 145.676ZM984.079 135.171V116.571H980.68V135.171H984.079ZM982.38 118.271H1020.67V114.872H982.38V118.271ZM1018.97 116.571V131.889H1022.37V116.571H1018.97ZM1018.97 131.889C1018.97 141.783 1017.47 150.617 1014.49 158.417L1017.67 159.63C1020.82 151.382 1022.37 142.127 1022.37 131.889H1018.97ZM1014.49 158.433C1011.7 165.942 1006.78 171.924 999.639 176.403L1001.45 179.282C1009.19 174.424 1014.62 167.86 1017.67 159.614L1014.49 158.433ZM999.647 176.398C992.731 180.686 982.806 182.926 969.688 182.926V186.326C983.121 186.326 993.766 184.044 1001.44 179.287L999.647 176.398ZM1036.75 182H1035.05V183.7H1036.75V182ZM1036.75 4.75131V3.05167H1035.05V4.75131H1036.75ZM1116.41 4.75131H1118.1V3.05167H1116.41V4.75131ZM1116.41 31.448V33.1477H1118.1V31.448H1116.41ZM1075.92 31.448V29.7484H1074.22V31.448H1075.92ZM1075.92 75.432H1074.22V77.1316H1075.92V75.432ZM1106.78 75.432H1108.48V73.7323H1106.78V75.432ZM1106.78 102.566V104.266H1108.48V102.566H1106.78ZM1075.92 102.566V100.867H1074.22V102.566H1075.92ZM1075.92 155.522H1074.22V157.222H1075.92V155.522ZM1116.84 155.522H1118.54V153.822H1116.84V155.522ZM1116.84 182V183.7H1118.54V182H1116.84ZM1038.45 182V4.75131H1035.05V182H1038.45ZM1036.75 6.45094H1116.41V3.05167H1036.75V6.45094ZM1114.71 4.75131V31.448H1118.1V4.75131H1114.71ZM1116.41 29.7484H1075.92V33.1477H1116.41V29.7484ZM1074.22 31.448V75.432H1077.62V31.448H1074.22ZM1075.92 77.1316H1106.78V73.7323H1075.92V77.1316ZM1105.08 75.432V102.566H1108.48V75.432H1105.08ZM1106.78 100.867H1075.92V104.266H1106.78V100.867ZM1074.22 102.566V155.522H1077.62V102.566H1074.22ZM1075.92 157.222H1116.84V153.822H1075.92V157.222ZM1115.14 155.522V182H1118.54V155.522H1115.14ZM1116.84 180.3H1036.75V183.7H1116.84V180.3ZM1148.41 178.718L1147.62 180.22L1148.41 178.718ZM1131.56 160.555L1130.02 161.26L1130.02 161.271L1131.56 160.555ZM1125.22 128.388L1124.96 126.707L1123.47 126.932L1123.52 128.444L1125.22 128.388ZM1158.7 123.355L1160.4 123.322L1160.36 121.386L1158.44 121.674L1158.7 123.355ZM1160.67 141.736L1159.02 142.148L1159.02 142.172L1159.03 142.196L1160.67 141.736ZM1165.92 151.802L1164.76 153.045L1164.78 153.063L1164.8 153.081L1165.92 151.802ZM1182.11 150.708L1180.58 149.98L1180.56 150.014L1180.54 150.048L1182.11 150.708ZM1178.83 123.574L1177.43 124.535L1177.43 124.544L1177.44 124.554L1178.83 123.574ZM1164.61 108.256L1163.49 109.537L1163.5 109.543L1163.5 109.548L1164.61 108.256ZM1149.29 94.9074L1150.4 93.6261L1150.4 93.6185L1150.39 93.611L1149.29 94.9074ZM1132.22 75.6508L1130.77 76.5464L1130.79 76.5634L1130.8 76.5801L1132.22 75.6508ZM1138.78 14.3796L1139.91 15.6523L1139.92 15.6471L1139.92 15.6419L1138.78 14.3796ZM1197.87 7.1584L1197.03 8.63874L1197.04 8.64323L1197.05 8.64764L1197.87 7.1584ZM1211 19.8503L1209.51 20.6757L1209.52 20.7004L1209.54 20.7247L1211 19.8503ZM1217.12 36.2622L1215.45 36.5552L1215.45 36.5795L1215.46 36.6037L1217.12 36.2622ZM1219.09 52.6741L1219.3 54.361L1220.83 54.1717L1220.79 52.6269L1219.09 52.6741ZM1185.39 56.8318L1183.69 56.879L1183.75 58.7475L1185.6 58.5186L1185.39 56.8318ZM1184.3 43.2646L1182.61 43.4523L1182.61 43.4878L1182.62 43.5231L1184.3 43.2646ZM1181.24 34.2928L1179.87 35.2979L1179.88 35.3206L1179.9 35.3428L1181.24 34.2928ZM1165.7 35.6057L1164.22 34.7625L1164.21 34.7895L1164.19 34.8171L1165.7 35.6057ZM1167.89 60.9895L1166.51 61.9863L1166.53 62.0133L1166.55 62.0395L1167.89 60.9895ZM1180.36 73.9002L1179.23 75.1725L1179.24 75.1757L1180.36 73.9002ZM1195.02 86.8109L1193.9 88.0864L1193.91 88.0966L1193.92 88.1065L1195.02 86.8109ZM1214.5 109.131L1213.06 110.039L1213.07 110.048L1213.07 110.056L1214.5 109.131ZM1216.9 162.743L1218.38 163.58L1218.39 163.573L1218.39 163.566L1216.9 162.743ZM1200.71 178.718L1199.88 177.236L1199.87 177.24L1199.86 177.244L1200.71 178.718ZM1176.2 182.926C1165.31 182.926 1156.34 180.99 1149.21 177.215L1147.62 180.22C1155.37 184.323 1164.92 186.326 1176.2 186.326V182.926ZM1149.21 177.215C1142.12 173.463 1136.75 167.697 1133.1 159.839L1130.02 161.271C1133.96 169.752 1139.83 176.095 1147.62 180.22L1149.21 177.215ZM1133.11 159.85C1129.44 151.807 1127.35 141.327 1126.92 128.331L1123.52 128.444C1123.96 141.708 1126.1 152.672 1130.02 161.26L1133.11 159.85ZM1125.47 130.068L1158.95 125.036L1158.44 121.674L1124.96 126.707L1125.47 130.068ZM1157 123.387C1157.14 131.037 1157.81 137.306 1159.02 142.148L1162.32 141.324C1161.19 136.83 1160.54 130.844 1160.4 123.322L1157 123.387ZM1159.03 142.196C1160.38 146.997 1162.24 150.696 1164.76 153.045L1167.08 150.56C1165.22 148.823 1163.58 145.812 1162.3 141.276L1159.03 142.196ZM1164.8 153.081C1167.45 155.405 1170.63 156.565 1174.23 156.565V153.166C1171.42 153.166 1169.05 152.284 1167.04 150.523L1164.8 153.081ZM1174.23 156.565C1176.45 156.565 1178.43 156.191 1180.06 155.329C1181.73 154.45 1182.94 153.11 1183.68 151.368L1180.54 150.048C1180.11 151.077 1179.43 151.816 1178.47 152.323C1177.48 152.848 1176.1 153.166 1174.23 153.166V156.565ZM1183.65 151.436C1185.07 148.437 1185.78 145.27 1185.78 141.955H1182.38C1182.38 144.767 1181.78 147.436 1180.58 149.98L1183.65 151.436ZM1185.78 141.955C1185.78 134.382 1183.96 127.894 1180.22 122.593L1177.44 124.554C1180.7 129.173 1182.38 134.94 1182.38 141.955H1185.78ZM1180.23 122.612C1176.63 117.355 1171.77 112.141 1165.71 106.963L1163.5 109.548C1169.4 114.582 1174.03 119.58 1177.43 124.535L1180.23 122.612ZM1165.72 106.974L1150.4 93.6261L1148.17 96.1888L1163.49 109.537L1165.72 106.974ZM1150.39 93.611C1143.8 88.0244 1138.22 81.7282 1133.64 74.7214L1130.8 76.5801C1135.56 83.8699 1141.36 90.4116 1148.19 96.2038L1150.39 93.611ZM1133.66 74.7552C1129.34 67.788 1127.14 59.1443 1127.14 48.7352H1123.74C1123.74 59.6252 1126.05 68.9253 1130.77 76.5464L1133.66 74.7552ZM1127.14 48.7352C1127.14 34.0579 1131.47 23.126 1139.91 15.6523L1137.66 13.107C1128.3 21.3888 1123.74 33.3606 1123.74 48.7352H1127.14ZM1139.92 15.6419C1148.43 7.97144 1160.09 4.04386 1175.11 4.04386V0.644597C1159.49 0.644597 1146.94 4.74062 1137.65 13.1173L1139.92 15.6419ZM1175.11 4.04386C1184.42 4.04386 1191.69 5.62356 1197.03 8.63874L1198.7 5.67805C1192.67 2.27435 1184.76 0.644597 1175.11 0.644597V4.04386ZM1197.05 8.64764C1202.63 11.7202 1206.76 15.7332 1209.51 20.6757L1212.48 19.0249C1209.39 13.4637 1204.77 9.01546 1198.69 5.66915L1197.05 8.64764ZM1209.54 20.7247C1212.5 25.6527 1214.46 30.9264 1215.45 36.5552L1218.8 35.9692C1217.74 29.9273 1215.62 24.2597 1212.45 18.9758L1209.54 20.7247ZM1215.46 36.6037C1216.61 42.2063 1217.25 47.5781 1217.39 52.7213L1220.79 52.6269C1220.64 47.2665 1219.97 41.697 1218.79 35.9207L1215.46 36.6037ZM1218.88 50.9873L1185.19 55.1449L1185.6 58.5186L1219.3 54.361L1218.88 50.9873ZM1187.09 56.7846C1186.95 51.4859 1186.58 46.8892 1185.98 43.0062L1182.62 43.5231C1183.19 47.2259 1183.55 51.6741 1183.69 56.879L1187.09 56.7846ZM1185.99 43.0769C1185.53 38.9765 1184.45 35.6324 1182.57 33.2427L1179.9 35.3428C1181.23 37.0379 1182.19 39.675 1182.61 43.4523L1185.99 43.0769ZM1182.61 33.2877C1180.61 30.559 1177.55 29.3107 1173.8 29.3107V32.71C1176.75 32.71 1178.66 33.65 1179.87 35.2979L1182.61 33.2877ZM1173.8 29.3107C1169.56 29.3107 1166.29 31.1477 1164.22 34.7625L1167.17 36.449C1168.61 33.9366 1170.73 32.71 1173.8 32.71V29.3107ZM1164.19 34.8171C1162.48 38.0922 1161.59 41.4244 1161.59 44.7964H1164.99C1164.99 42.0412 1165.71 39.2463 1167.2 36.3944L1164.19 34.8171ZM1161.59 44.7964C1161.59 51.6264 1163.19 57.3987 1166.51 61.9863L1169.26 59.9926C1166.46 56.119 1164.99 51.0959 1164.99 44.7964H1161.59ZM1166.55 62.0395C1169.84 66.2249 1174.07 70.6021 1179.23 75.1725L1181.49 72.6279C1176.44 68.1534 1172.35 63.9236 1169.22 59.9394L1166.55 62.0395ZM1179.24 75.1757L1193.9 88.0864L1196.15 85.5353L1181.48 72.6246L1179.24 75.1757ZM1193.92 88.1065C1201.53 94.5633 1207.9 101.874 1213.06 110.039L1215.93 108.224C1210.59 99.7579 1203.98 92.188 1196.12 85.5153L1193.92 88.1065ZM1213.07 110.056C1218.25 118.038 1220.89 127.982 1220.89 139.986H1224.29C1224.29 127.481 1221.54 116.855 1215.92 108.206L1213.07 110.056ZM1220.89 139.986C1220.89 148.031 1219.06 155.331 1215.42 161.921L1218.39 163.566C1222.33 156.442 1224.29 148.57 1224.29 139.986H1220.89ZM1215.42 161.907C1211.79 168.336 1206.62 173.443 1199.88 177.236L1201.54 180.199C1208.81 176.115 1214.43 170.572 1218.38 163.58L1215.42 161.907ZM1199.86 177.244C1193.31 181.008 1185.45 182.926 1176.2 182.926V186.326C1185.92 186.326 1194.4 184.305 1201.56 180.191L1199.86 177.244ZM111.694 372L110.006 372.204L110.187 373.7H111.694V372ZM90.2486 194.751V193.052H88.331L88.5613 194.955L90.2486 194.751ZM123.51 194.751L125.201 194.579L125.046 193.052H123.51V194.751ZM134.014 298.037L132.323 298.209L135.699 298.255L134.014 298.037ZM147.362 194.97V193.271H145.868L145.677 194.752L147.362 194.97ZM173.402 194.97L175.086 194.74L174.885 193.271H173.402V194.97ZM187.407 297.38L185.723 297.611L189.098 297.557L187.407 297.38ZM198.13 194.751V193.052H196.598L196.439 194.575L198.13 194.751ZM230.953 194.751L232.641 194.953L232.869 193.052H230.953V194.751ZM209.727 372V373.7H211.236L211.415 372.202L209.727 372ZM175.591 372L173.908 372.237L174.114 373.7H175.591V372ZM160.492 264.994L162.175 264.757L158.807 264.77L160.492 264.994ZM146.268 372V373.7H147.757L147.953 372.224L146.268 372ZM113.381 371.796L91.9359 194.547L88.5613 194.955L110.006 372.204L113.381 371.796ZM90.2486 196.451H123.51V193.052H90.2486V196.451ZM121.819 194.923L132.323 298.209L135.705 297.865L125.201 194.579L121.819 194.923ZM135.699 298.255L149.048 195.188L145.677 194.752L132.328 297.819L135.699 298.255ZM147.362 196.67H173.402V193.271H147.362V196.67ZM171.718 195.2L185.723 297.611L189.091 297.15L175.086 194.74L171.718 195.2ZM189.098 297.557L199.82 194.928L196.439 194.575L185.717 297.204L189.098 297.557ZM198.13 196.451H230.953V193.052H198.13V196.451ZM229.266 194.549L208.04 371.798L211.415 372.202L232.641 194.953L229.266 194.549ZM209.727 370.3H175.591V373.7H209.727V370.3ZM177.274 371.763L162.175 264.757L158.809 265.232L173.908 372.237L177.274 371.763ZM158.807 264.77L144.583 371.776L147.953 372.224L162.176 265.218L158.807 264.77ZM146.268 370.3H111.694V373.7H146.268V370.3ZM244.579 372H242.879V373.7H244.579V372ZM244.579 194.751V193.052H242.879V194.751H244.579ZM324.231 194.751H325.931V193.052H324.231V194.751ZM324.231 221.448V223.148H325.931V221.448H324.231ZM283.749 221.448V219.748H282.049V221.448H283.749ZM283.749 265.432H282.049V267.132H283.749V265.432ZM314.603 265.432H316.303V263.732H314.603V265.432ZM314.603 292.566V294.266H316.303V292.566H314.603ZM283.749 292.566V290.867H282.049V292.566H283.749ZM283.749 345.522H282.049V347.222H283.749V345.522ZM324.669 345.522H326.369V343.822H324.669V345.522ZM324.669 372V373.7H326.369V372H324.669ZM246.278 372V194.751H242.879V372H246.278ZM244.579 196.451H324.231V193.052H244.579V196.451ZM322.532 194.751V221.448H325.931V194.751H322.532ZM324.231 219.748H283.749V223.148H324.231V219.748ZM282.049 221.448V265.432H285.448V221.448H282.049ZM283.749 267.132H314.603V263.732H283.749V267.132ZM312.903 265.432V292.566H316.303V265.432H312.903ZM314.603 290.867H283.749V294.266H314.603V290.867ZM282.049 292.566V345.522H285.448V292.566H282.049ZM283.749 347.222H324.669V343.822H283.749V347.222ZM322.969 345.522V372H326.369V345.522H322.969ZM324.669 370.3H244.579V373.7H324.669V370.3ZM387.499 372H385.799V373.7H387.499V372ZM387.499 194.751V193.052H385.799V194.751H387.499ZM473.279 200.878L472.409 202.339L472.42 202.345L472.432 202.352L473.279 200.878ZM488.597 218.384L487.037 219.061L487.042 219.072L488.597 218.384ZM486.846 277.686L488.282 278.595L488.286 278.588L488.29 278.582L486.846 277.686ZM468.465 292.566L469.038 294.166L468.465 292.566ZM426.669 296.724V295.024H424.969V296.724H426.669ZM426.669 372V373.7H428.369V372H426.669ZM426.669 269.371H424.969V271.07H426.669V269.371ZM450.74 266.745L449.76 265.356L450.74 266.745ZM455.554 258.867L453.905 258.455L453.897 258.488L453.89 258.521L455.554 258.867ZM455.773 233.702L454.096 233.982L454.103 234.023L454.112 234.063L455.773 233.702ZM451.177 225.387L450.097 226.699L451.177 225.387ZM426.669 222.323V220.624H424.969V222.323H426.669ZM389.199 372V194.751H385.799V372H389.199ZM387.499 196.451H447.02V193.052H387.499V196.451ZM447.02 196.451C457.462 196.451 465.889 198.455 472.409 202.339L474.149 199.418C466.955 195.133 457.876 193.052 447.02 193.052V196.451ZM472.432 202.352C478.95 206.097 483.817 211.641 487.037 219.061L490.156 217.708C486.665 209.664 481.321 203.538 474.125 199.405L472.432 202.352ZM487.042 219.072C490.276 226.384 491.93 235.399 491.93 246.175H495.329C495.329 235.069 493.627 225.557 490.151 217.697L487.042 219.072ZM491.93 246.175C491.93 259.744 489.685 269.881 485.401 276.791L488.29 278.582C493.052 270.903 495.329 260.033 495.329 246.175H491.93ZM485.41 276.777C481.083 283.616 475.255 288.327 467.891 290.966L469.038 294.166C477.138 291.263 483.564 286.053 488.282 278.595L485.41 276.777ZM467.891 290.966C460.372 293.662 451.89 295.024 442.424 295.024V298.424C452.215 298.424 461.094 297.014 469.038 294.166L467.891 290.966ZM442.424 295.024H426.669V298.424H442.424V295.024ZM424.969 296.724V372H428.369V296.724H424.969ZM426.669 370.3H387.499V373.7H426.669V370.3ZM426.669 271.07H439.798V267.671H426.669V271.07ZM439.798 271.07C444.774 271.07 448.83 270.174 451.72 268.133L449.76 265.356C447.69 266.817 444.451 267.671 439.798 267.671V271.07ZM451.72 268.133C454.613 266.091 456.417 263.056 457.218 259.214L453.89 258.521C453.232 261.68 451.827 263.897 449.76 265.356L451.72 268.133ZM457.203 259.279C458.124 255.595 458.566 250.994 458.566 245.519H455.167C455.167 250.839 454.734 255.137 453.905 258.455L457.203 259.279ZM458.566 245.519C458.566 240.911 458.195 236.846 457.434 233.341L454.112 234.063C454.809 237.27 455.167 241.082 455.167 245.519H458.566ZM457.449 233.423C456.806 229.562 455.089 226.406 452.258 224.075L450.097 226.699C452.226 228.452 453.573 230.84 454.096 233.982L457.449 233.423ZM452.258 224.075C449.333 221.666 444.993 220.624 439.58 220.624V224.023C444.669 224.023 448.062 225.023 450.097 226.699L452.258 224.075ZM439.58 220.624H426.669V224.023H439.58V220.624ZM424.969 222.323V269.371H428.369V222.323H424.969ZM507.041 372H505.341V373.7H507.041V372ZM507.041 194.751V193.052H505.341V194.751H507.041ZM607.263 212.914L605.872 213.89L605.884 213.907L605.896 213.924L607.263 212.914ZM612.953 261.055L611.288 260.714L612.953 261.055ZM606.388 275.936L605.034 274.908L605.028 274.916L606.388 275.936ZM593.04 286.22L592.31 284.685L591.013 285.301L591.404 286.683L593.04 286.22ZM617.329 372V373.7H619.577L618.965 371.537L617.329 372ZM576.846 372L575.196 372.405L575.513 373.7H576.846V372ZM557.371 292.566L559.022 292.162L558.704 290.867H557.371V292.566ZM546.211 292.566V290.867H544.511V292.566H546.211ZM546.211 372V373.7H547.911V372H546.211ZM546.211 270.027H544.511V271.727H546.211V270.027ZM570.063 267.183L570.958 268.628L570.982 268.613L571.006 268.597L570.063 267.183ZM576.409 258.648L574.803 258.092L574.796 258.111L574.79 258.13L576.409 258.648ZM574.221 227.356L572.799 228.288L574.221 227.356ZM546.211 221.01V219.311H544.511V221.01H546.211ZM508.741 372V194.751H505.341V372H508.741ZM507.041 196.451H555.839V193.052H507.041V196.451ZM555.839 196.451C567.684 196.451 577.87 197.752 586.424 200.318L587.401 197.062C578.449 194.377 567.919 193.052 555.839 193.052V196.451ZM586.424 200.318C594.847 202.845 601.298 207.375 605.872 213.89L608.654 211.937C603.601 204.739 596.484 199.787 587.401 197.062L586.424 200.318ZM605.896 213.924C610.558 220.231 613.004 229.375 613.004 241.58H616.403C616.403 228.984 613.889 219.018 608.63 211.904L605.896 213.924ZM613.004 241.58C613.004 248.787 612.427 255.161 611.288 260.714L614.618 261.397C615.813 255.571 616.403 248.961 616.403 241.58H613.004ZM611.288 260.714C610.167 266.178 608.076 270.899 605.034 274.908L607.742 276.963C611.119 272.511 613.404 267.312 614.618 261.397L611.288 260.714ZM605.028 274.916C602.168 278.729 597.961 282.001 592.31 284.685L593.769 287.756C599.789 284.896 604.481 281.311 607.748 276.955L605.028 274.916ZM591.404 286.683L615.694 372.463L618.965 371.537L594.675 285.757L591.404 286.683ZM617.329 370.3H576.846V373.7H617.329V370.3ZM578.497 371.595L559.022 292.162L555.72 292.971L575.196 372.405L578.497 371.595ZM557.371 290.867H546.211V294.266H557.371V290.867ZM544.511 292.566V372H547.911V292.566H544.511ZM546.211 370.3H507.041V373.7H546.211V370.3ZM546.211 271.727H557.152V268.328H546.211V271.727ZM557.152 271.727C562.855 271.727 567.517 270.757 570.958 268.628L569.168 265.737C566.481 267.401 562.537 268.328 557.152 268.328V271.727ZM571.006 268.597C574.403 266.332 576.748 263.164 578.028 259.166L574.79 258.13C573.735 261.427 571.85 263.949 569.12 265.768L571.006 268.597ZM578.015 259.204C579.406 255.187 580.078 250.467 580.078 245.081H576.679C576.679 250.199 576.038 254.524 574.803 258.092L578.015 259.204ZM580.078 245.081C580.078 237.319 578.665 231.038 575.642 226.425L572.799 228.288C575.32 232.136 576.679 237.671 576.679 245.081H580.078ZM575.642 226.425C572.426 221.515 566.627 219.311 558.903 219.311V222.71C566.059 222.71 570.472 224.736 572.799 228.288L575.642 226.425ZM558.903 219.311H546.211V222.71H558.903V219.311ZM544.511 221.01V270.027H547.911V221.01H544.511ZM650.327 367.623L649.449 369.078L650.327 367.623ZM633.697 347.492L632.11 348.1L633.697 347.492ZM633.697 219.041L632.113 218.424L633.697 219.041ZM650.327 199.347L651.186 200.814L651.196 200.808L651.206 200.802L650.327 199.347ZM713.568 199.347L712.69 200.802L712.706 200.811L712.722 200.821L713.568 199.347ZM730.418 219.041L728.834 219.658L730.418 219.041ZM730.418 347.492L728.831 346.883L730.418 347.492ZM713.568 367.623L712.701 366.161L712.69 366.168L713.568 367.623ZM690.81 343.772L689.565 342.615L690.81 343.772ZM694.53 335.894L696.202 336.198L694.53 335.894ZM694.53 230.858L692.858 231.162L692.859 231.169L692.861 231.176L694.53 230.858ZM690.81 222.98L689.565 224.136L690.81 222.98ZM673.304 222.98L674.55 224.136L673.304 222.98ZM669.584 230.858L671.254 231.176L671.255 231.169L671.256 231.162L669.584 230.858ZM669.365 335.894L667.681 336.123L667.686 336.161L667.693 336.198L669.365 335.894ZM672.866 343.772L671.576 344.878L671.598 344.903L671.621 344.928L672.866 343.772ZM681.838 372.926C668.736 372.926 658.576 370.619 651.206 366.168L649.449 369.078C657.542 373.965 668.389 376.326 681.838 376.326V372.926ZM651.206 366.168C643.811 361.704 638.509 355.297 635.284 346.883L632.11 348.1C635.595 357.192 641.38 364.207 649.449 369.078L651.206 366.168ZM635.284 346.883C632.021 338.372 630.363 328.158 630.363 316.199H626.964C626.964 328.458 628.662 339.105 632.11 348.1L635.284 346.883ZM630.363 316.199V250.333H626.964V316.199H630.363ZM630.363 250.333C630.363 238.225 632.022 228.016 635.28 219.658L632.113 218.424C628.661 227.28 626.964 237.933 626.964 250.333H630.363ZM635.28 219.658C638.501 211.396 643.795 205.136 651.186 200.814L649.469 197.88C641.396 202.602 635.603 209.472 632.113 218.424L635.28 219.658ZM651.206 200.802C658.576 196.352 668.736 194.044 681.838 194.044V190.645C668.389 190.645 657.542 193.005 649.449 197.892L651.206 200.802ZM681.838 194.044C695.09 194.044 705.322 196.353 712.69 200.802L714.446 197.892C706.351 193.004 695.429 190.645 681.838 190.645V194.044ZM712.722 200.821C720.257 205.146 725.617 211.406 728.834 219.658L732.001 218.424C728.508 209.462 722.634 202.592 714.414 197.873L712.722 200.821ZM728.834 219.658C732.092 228.016 733.751 238.225 733.751 250.333H737.15C737.15 237.933 735.454 227.28 732.001 218.424L728.834 219.658ZM733.751 250.333V316.199H737.15V250.333H733.751ZM733.751 316.199C733.751 328.158 732.093 338.372 728.831 346.883L732.005 348.1C735.453 339.105 737.15 328.458 737.15 316.199H733.751ZM728.831 346.883C725.609 355.288 720.241 361.693 712.701 366.161L714.434 369.086C722.65 364.217 728.516 357.201 732.005 348.1L728.831 346.883ZM712.69 366.168C705.322 370.617 695.09 372.926 681.838 372.926V376.326C695.429 376.326 706.351 373.966 714.446 369.078L712.69 366.168ZM681.838 348.535C686.174 348.535 689.712 347.451 692.056 344.928L689.565 342.615C688.115 344.176 685.672 345.135 681.838 345.135V348.535ZM692.056 344.928C694.208 342.61 695.571 339.671 696.202 336.198L692.858 335.59C692.322 338.535 691.205 340.848 689.565 342.615L692.056 344.928ZM696.202 336.198C696.805 332.885 697.105 329.501 697.105 326.047H693.706C693.706 329.303 693.423 332.483 692.858 335.59L696.202 336.198ZM697.105 326.047V240.705H693.706V326.047H697.105ZM697.105 240.705C697.105 237.11 696.806 233.72 696.2 230.54L692.861 231.176C693.422 234.122 693.706 237.297 693.706 240.705H697.105ZM696.202 230.553C695.571 227.08 694.208 224.141 692.056 221.823L689.565 224.136C691.205 225.903 692.322 228.216 692.858 231.162L696.202 230.553ZM692.056 221.823C689.712 219.3 686.174 218.217 681.838 218.217V221.616C685.672 221.616 688.115 222.575 689.565 224.136L692.056 221.823ZM681.838 218.217C677.75 218.217 674.38 219.323 672.059 221.823L674.55 224.136C676.021 222.552 678.341 221.616 681.838 221.616V218.217ZM672.059 221.823C669.906 224.141 668.543 227.08 667.912 230.553L671.256 231.162C671.792 228.216 672.909 225.903 674.55 224.136L672.059 221.823ZM667.914 230.54C667.309 233.72 667.009 237.11 667.009 240.705H670.408C670.408 237.297 670.692 234.122 671.254 231.176L667.914 230.54ZM667.009 240.705V326.047H670.408V240.705H667.009ZM667.009 326.047C667.009 329.476 667.233 332.835 667.681 336.123L671.049 335.664C670.622 332.533 670.408 329.328 670.408 326.047H667.009ZM667.693 336.198C668.319 339.641 669.591 342.562 671.576 344.878L674.157 342.665C672.64 340.896 671.579 338.566 671.037 335.59L667.693 336.198ZM671.621 344.928C673.964 347.451 677.503 348.535 681.838 348.535V345.135C678.004 345.135 675.562 344.176 674.112 342.615L671.621 344.928ZM775.742 372L774.069 372.301L774.321 373.7H775.742V372ZM743.793 194.751V193.052H741.76L742.121 195.053L743.793 194.751ZM777.274 194.751L778.952 194.486L778.726 193.052H777.274V194.751ZM796.311 315.105L794.633 315.371L797.993 315.353L796.311 315.105ZM814.036 194.751V193.052H812.569L812.355 194.504L814.036 194.751ZM849.486 194.751L851.158 195.057L851.524 193.052H849.486V194.751ZM817.1 372V373.7H818.517L818.772 372.305L817.1 372ZM777.414 371.699L745.466 194.45L742.121 195.053L774.069 372.301L777.414 371.699ZM743.793 196.451H777.274V193.052H743.793V196.451ZM775.595 195.017L794.633 315.371L797.99 314.84L778.952 194.486L775.595 195.017ZM797.993 315.353L815.718 194.999L812.355 194.504L794.63 314.858L797.993 315.353ZM814.036 196.451H849.486V193.052H814.036V196.451ZM847.814 194.446L815.428 371.695L818.772 372.305L851.158 195.057L847.814 194.446ZM817.1 370.3H775.742V373.7H817.1V370.3ZM862.039 372H860.34V373.7H862.039V372ZM862.039 194.751V193.052H860.34V194.751H862.039ZM901.209 194.751H902.909V193.052H901.209V194.751ZM901.209 372V373.7H902.909V372H901.209ZM863.739 372V194.751H860.34V372H863.739ZM862.039 196.451H901.209V193.052H862.039V196.451ZM899.51 194.751V372H902.909V194.751H899.51ZM901.209 370.3H862.039V373.7H901.209V370.3ZM922.169 372H920.469V373.7H922.169V372ZM922.169 194.751V193.052H920.469V194.751H922.169ZM1003.13 200.66L1002.43 202.205L1002.44 202.21L1002.45 202.215L1003.13 200.66ZM1021.3 218.822L1019.73 219.482L1019.73 219.492L1021.3 218.822ZM1021.3 347.71L1022.86 348.37L1022.87 348.36L1021.3 347.71ZM1003.13 366.092L1002.43 364.546L1002.42 364.551L1003.13 366.092ZM961.338 344.866H959.639V346.565H961.338V344.866ZM980.376 342.24L979.433 340.826L980.376 342.24ZM985.19 334.362L983.526 334.015L983.519 334.049L983.514 334.083L985.19 334.362ZM984.972 231.295L983.314 231.672L983.322 231.707L983.332 231.742L984.972 231.295ZM979.938 224.293L979.113 225.779V225.779L979.938 224.293ZM961.338 222.104V220.405H959.639V222.104H961.338ZM923.868 372V194.751H920.469V372H923.868ZM922.169 196.451H967.028V193.052H922.169V196.451ZM967.028 196.451C982.383 196.451 994.139 198.412 1002.43 202.205L1003.84 199.114C994.915 195.029 982.599 193.052 967.028 193.052V196.451ZM1002.45 202.215C1010.68 205.841 1016.41 211.585 1019.73 219.482L1022.86 218.163C1019.19 209.429 1012.81 203.064 1003.82 199.104L1002.45 202.215ZM1019.73 219.492C1023.11 227.374 1024.85 237.771 1024.85 250.771H1028.25C1028.25 237.511 1026.48 226.61 1022.86 218.153L1019.73 219.492ZM1024.85 250.771V315.105H1028.25V250.771H1024.85ZM1024.85 315.105C1024.85 328.25 1023.11 338.876 1019.73 347.061L1022.87 348.36C1026.48 339.622 1028.25 328.512 1028.25 315.105H1024.85ZM1019.73 347.051C1016.4 354.953 1010.67 360.775 1002.43 364.546L1003.84 367.637C1012.81 363.531 1019.19 357.099 1022.86 348.37L1019.73 347.051ZM1002.42 364.551C994.279 368.339 982.675 370.3 967.465 370.3V373.7C982.891 373.7 995.066 371.722 1003.85 367.633L1002.42 364.551ZM967.465 370.3H922.169V373.7H967.465V370.3ZM961.338 346.565H967.465V343.166H961.338V346.565ZM967.465 346.565C973.527 346.565 978.259 345.694 981.319 343.654L979.433 340.826C977.242 342.286 973.366 343.166 967.465 343.166V346.565ZM981.319 343.654C984.386 341.609 986.217 338.542 986.867 334.641L983.514 334.083C982.997 337.184 981.618 339.369 979.433 340.826L981.319 343.654ZM986.854 334.709C987.616 331.054 987.984 326.552 987.984 321.232H984.585C984.585 326.417 984.224 330.668 983.526 334.015L986.854 334.709ZM987.984 321.232V243.987H984.585V321.232H987.984ZM987.984 243.987C987.984 238.661 987.542 234.262 986.611 230.848L983.332 231.742C984.151 234.747 984.585 238.81 984.585 243.987H987.984ZM986.629 230.919C985.804 227.288 983.855 224.525 980.764 222.807L979.113 225.779C981.273 226.979 982.68 228.883 983.314 231.672L986.629 230.919ZM980.764 222.807C977.743 221.129 973.146 220.405 967.247 220.405V223.804C973.018 223.804 976.882 224.539 979.113 225.779L980.764 222.807ZM967.247 220.405H961.338V223.804H967.247V220.405ZM959.639 222.104V344.866H963.038V222.104H959.639ZM1044.92 372H1043.22V373.7H1044.92V372ZM1044.92 194.751V193.052H1043.22V194.751H1044.92ZM1124.57 194.751H1126.27V193.052H1124.57V194.751ZM1124.57 221.448V223.148H1126.27V221.448H1124.57ZM1084.09 221.448V219.748H1082.39V221.448H1084.09ZM1084.09 265.432H1082.39V267.132H1084.09V265.432ZM1114.94 265.432H1116.64V263.732H1114.94V265.432ZM1114.94 292.566V294.266H1116.64V292.566H1114.94ZM1084.09 292.566V290.867H1082.39V292.566H1084.09ZM1084.09 345.522H1082.39V347.222H1084.09V345.522ZM1125.01 345.522H1126.71V343.822H1125.01V345.522ZM1125.01 372V373.7H1126.71V372H1125.01ZM1046.62 372V194.751H1043.22V372H1046.62ZM1044.92 196.451H1124.57V193.052H1044.92V196.451ZM1122.87 194.751V221.448H1126.27V194.751H1122.87ZM1124.57 219.748H1084.09V223.148H1124.57V219.748ZM1082.39 221.448V265.432H1085.79V221.448H1082.39ZM1084.09 267.132H1114.94V263.732H1084.09V267.132ZM1113.24 265.432V292.566H1116.64V265.432H1113.24ZM1114.94 290.867H1084.09V294.266H1114.94V290.867ZM1082.39 292.566V345.522H1085.79V292.566H1082.39ZM1084.09 347.222H1125.01V343.822H1084.09V347.222ZM1123.31 345.522V372H1126.71V345.522H1123.31ZM1125.01 370.3H1044.92V373.7H1125.01V370.3Z" fill="white" fill-opacity="0.05" mask="url(#path-1-outside-1_860_1432)"/>
</svg>
